<?xml version="1.0" standalone="yes"?>
<svg xmlns="http://www.w3.org/2000/svg" width="500" height="500">
<path style="fill:#000000; stroke:none;" d="M0 0L0 500L500 500L500 0L0 0z"/>
<path style="fill:#f3a39f; stroke:none;" d="M321.653 4.07175C315.183 8.20438 322.717 19.8207 328.681 15.3418C333.864 11.4501 326.924 0.704803 321.653 4.07175M185.011 6.46143C177.74 8.19501 178.031 22.1983 185.998 19.9136C192.892 17.9369 192.292 4.72531 185.011 6.46143z"/>
<path style="fill:#37292f; stroke:none;" d="M252 11C256.595 12.6488 263.958 11.9583 269 12C264.259 8.80685 257.361 10.0048 252 11z"/>
<path style="fill:#2e2025; stroke:none;" d="M234 36C227.973 39.3239 232.165 44.7425 230 50C234.958 55.8275 244.369 60.0787 252 58C249.88 53.2118 246.354 49.3488 245.482 44C244.184 36.0351 250.734 23.2835 260 23.8627C270.987 24.5494 274.1 38.6881 270.468 47C268.994 50.3726 266.861 52.7905 264 55C266.953 63.8677 286.748 54.213 282 47C286.779 39.7599 283.658 36.7465 280.404 29.9606C277.687 24.2977 277.049 16.5354 270.907 13.179C255.05 4.51404 232.791 18.2453 234 36z"/>
<path style="fill:#ff914d; stroke:none;" d="M318 12C312.441 19.2958 305.32 25.1219 299.286 32C293.512 38.5831 288.561 46.6286 281.91 52.3341C278.102 55.6009 273.468 57.0875 269.609 59.9838C267.548 61.5307 266.352 64.0458 264.671 65.9576C259.583 71.7448 257.006 72.8849 257 81C255.784 78.4781 255.59 74.8999 253.976 72.6837C249.805 66.954 245.376 66.0943 245 58C228.993 56.3516 217.323 37.1295 206 27.4283C202.567 24.4865 196.706 17.4482 192 17.1158C189.182 16.9167 186.259 19.6154 184 21C191.007 45.3212 211.632 70.2195 235 80C233.691 84.1403 230.723 92.6032 233.194 96.6057C235.795 100.82 249.494 101.96 253.262 98.9722C255.372 97.2987 255.524 93.4415 256 91C257.006 93.969 257.599 96.8894 258 100C262.886 99.8991 275.467 100.286 278.864 96.3974C283.185 91.4507 280.932 83.1899 285.317 78.3248C289.825 73.3235 296.222 69.9398 300.961 64.9992C312.644 52.8196 324.456 33.9825 327 17L318 12z"/>
<path style="fill:#5e4f51; stroke:none;" d="M258 23C259.248 23.6848 259.548 23.7488 261 24C259.752 23.3152 259.452 23.2512 258 23z"/>
<path style="fill:#836c6d; stroke:none;" d="M255 24L256 25L255 24z"/>
<path style="fill:#f3a39f; stroke:none;" d="M246 59C246.011 62.0183 245.744 65.281 247.603 67.8673C250.294 71.6092 254.116 72.4571 256 77C259.484 70.4676 265.752 66.8259 269 60L263 58C267.645 51.3214 272.805 45.8016 271.811 37C270.74 27.5189 260.896 19.807 252.185 26.6528C246.414 31.1878 244.528 41.1776 246.653 48C247.548 50.8753 250.898 53.787 250.81 56.8372C250.731 59.5864 247.807 59.157 246 59z"/>
<path style="fill:#6a595c; stroke:none;" d="M263 24L264 25L263 24z"/>
<path style="fill:#836c6d; stroke:none;" d="M253 25L254 26L253 25z"/>
<path style="fill:#766365; stroke:none;" d="M265 25L266 26L265 25z"/>
<path style="fill:#9c7c7d; stroke:none;" d="M249 29L250 30L249 29M269 29L270 30L269 29z"/>
<path style="fill:#5e4f51; stroke:none;" d="M248 30L249 31L248 30z"/>
<path style="fill:#a88384; stroke:none;" d="M270 31L271 32L270 31z"/>
<path style="fill:#000000; stroke:none;" d="M235 32L236 33L235 32z"/>
<path style="fill:#766365; stroke:none;" d="M247 32L248 33L247 32z"/>
<path style="fill:#b48a89; stroke:none;" d="M271.333 33.6667C271.278 33.7222 271.222 34.7777 271.667 34.3333C271.722 34.2778 271.778 33.2222 271.333 33.6667M246.333 35.6667C246.278 35.7221 246.222 36.7779 246.667 36.3333C246.722 36.2777 246.778 35.2223 246.333 35.6667z"/>
<path style="fill:#5e4f51; stroke:none;" d="M245.333 38.6667C245.278 38.7221 245.222 39.7779 245.667 39.3333C245.722 39.2776 245.778 38.2224 245.333 38.6667z"/>
<path style="fill:#524547; stroke:none;" d="M272.333 38.6667C272.278 38.7223 272.222 39.7777 272.667 39.3333C272.722 39.2778 272.778 38.2221 272.333 38.6667z"/>
<path style="fill:#8f7475; stroke:none;" d="M245 40L245 45C245.83 42.9695 245.83 42.0305 245 40z"/>
<path style="fill:#836c6d; stroke:none;" d="M271.333 43.6667C271.278 43.7222 271.222 44.7778 271.667 44.3333C271.722 44.2778 271.778 43.2222 271.333 43.6667z"/>
<path style="fill:#766365; stroke:none;" d="M270 47L271 48L270 47z"/>
<path style="fill:#836c6d; stroke:none;" d="M246 48L247 49L246 48z"/>
<path style="fill:#766365; stroke:none;" d="M269 49L270 50L269 49z"/>
<path style="fill:#7c5340; stroke:none;" d="M284.333 49.6667C284.278 49.7223 284.222 50.7777 284.667 50.3333C284.722 50.2778 284.778 49.2222 284.333 49.6667z"/>
<path style="fill:#9f6749; stroke:none;" d="M229 50L230 51L229 50z"/>
<path style="fill:#a88384; stroke:none;" d="M247 50L248 51L247 50z"/>
<path style="fill:#67473f; stroke:none;" d="M230 51L231 52L230 51z"/>
<path style="fill:#aa775b; stroke:none;" d="M283 51L284 52L283 51z"/>
<path style="fill:#776466; stroke:none;" d="M248 52L249 53L248 52M267 52L268 53L267 52z"/>
<path style="fill:#8f6959; stroke:none;" d="M233 53L234 54L233 53z"/>
<path style="fill:#a88384; stroke:none;" d="M249 53L250 54L249 53z"/>
<path style="fill:#776466; stroke:none;" d="M266 53L267 54L266 53z"/>
<path style="fill:#78605a; stroke:none;" d="M280 53L281 54L280 53z"/>
<path style="fill:#5e4d4c; stroke:none;" d="M235 54L236 55L235 54z"/>
<path style="fill:#a88384; stroke:none;" d="M250 54L251 55L250 54z"/>
<path style="fill:#836d6e; stroke:none;" d="M265 54L266 55L265 54z"/>
<path style="fill:#ad7d64; stroke:none;" d="M279 54L280 55L279 54z"/>
<path style="fill:#a07763; stroke:none;" d="M236 55L237 56L236 55z"/>
<path style="fill:#917677; stroke:none;" d="M251 55L252 56L251 55z"/>
<path style="fill:#6b5754; stroke:none;" d="M238 56L239 57L238 56z"/>
<path style="fill:#8f7475; stroke:none;" d="M263.333 56.6667C263.278 56.7223 263.222 57.7777 263.667 57.3333C263.722 57.2778 263.778 56.2222 263.333 56.6667z"/>
<path style="fill:#78605a; stroke:none;" d="M276 56L277 57L276 56z"/>
<path style="fill:#5e4e4c; stroke:none;" d="M242 57C243.377 57.9114 244.44 58.4038 246 59C244.686 57.3821 244.123 57.3067 242 57z"/>
<path style="fill:#ad7d64; stroke:none;" d="M275 57L276 58L275 57z"/>
<path style="fill:#5e4f51; stroke:none;" d="M251 58L252 59L251 58M264 58L265 59L264 58z"/>
<path style="fill:#927061; stroke:none;" d="M269 58C270.769 58.7789 272.036 58.9124 274 59C272.231 58.2211 270.964 58.0876 269 58z"/>
<path style="fill:#f99a75; stroke:none;" d="M245 59L245 64C245.83 61.9695 245.83 61.0305 245 59z"/>
<path style="fill:#836c6d; stroke:none;" d="M247 59C248.506 59.6831 249.315 59.8259 251 60C249.494 59.317 248.685 59.1741 247 59z"/>
<path style="fill:#8f7475; stroke:none;" d="M266 59C267.248 59.6848 267.548 59.7488 269 60C267.752 59.3152 267.452 59.2512 266 59z"/>
<path style="fill:#f69e8a; stroke:none;" d="M255 75L256 81C256.889 78.492 256.495 77.1851 255 75z"/>
<path style="fill:#f89681; stroke:none;" d="M256 91L255 96C256.879 94.3768 256.916 93.3004 256 91z"/>
<path style="fill:#f8a16d; stroke:none;" d="M231 96L231 98L233 98L233 96L231 96z"/>
<path style="fill:#f3a39f; stroke:none;" d="M255 96C250.399 103.501 239.022 99.189 232 98L232 105C244.943 105.557 268.179 114.163 276 99L258 100L258 96L255 96z"/>
<path style="fill:#eb926a; stroke:none;" d="M272 98C274.052 98.8742 275.747 98.9528 278 99C275.948 98.1258 274.253 98.0472 272 98z"/>
<path style="fill:#d0afb4; stroke:none;" d="M274 101L274 104C274.696 102.446 274.696 102.554 274 101z"/>
<path style="fill:#8ba5cb; stroke:none;" d="M231 104C232.314 105.618 232.877 105.693 235 106C233.623 105.089 232.56 104.596 231 104z"/>
<path style="fill:#83bce7; stroke:none;" d="M271 105C273.046 105.751 273.596 105.656 275 104L271 105z"/>
<path style="fill:#c5a8b7; stroke:none;" d="M235 105C236.248 105.685 236.548 105.749 238 106C236.752 105.315 236.452 105.251 235 105M268 105C269.248 105.685 269.548 105.749 271 106C269.752 105.315 269.452 105.251 268 105z"/>
<path style="fill:#38b6ff; stroke:none;" d="M230 106C226.165 122.578 218.396 137.824 213.347 154C209.774 165.449 208.265 177.212 206.41 189C205.564 194.372 205.402 199.625 204.826 205C204.557 207.518 203.293 210.317 203.618 212.852C203.996 215.802 207.399 216.38 209.791 215.392C214.954 213.261 217.721 203.647 220.297 199.09C228.197 185.113 236.027 171.43 243.247 157C245.773 151.95 248.319 146.724 251.465 142.024C252.414 140.605 253.833 138.281 255.88 138.631C257.828 138.965 258.961 141.512 259.843 143.005C262.848 148.095 264.915 153.632 267.436 158.961C274.26 173.384 283.105 187.102 291 201C295.55 209.01 296.74 215.964 307 216C306.997 188.049 299.548 158.791 289.2 133C286.504 126.281 283.025 120.259 279.427 114C278.094 111.68 276.961 108.526 274.61 107.028C269.563 103.812 260.459 107.838 255 108.381C246.755 109.201 238.361 106.001 230 106z"/>
<path style="fill:#aeabc3; stroke:none;" d="M240 106C241.248 106.685 241.548 106.749 243 107C241.752 106.315 241.452 106.251 240 106z"/>
<path style="fill:#67b1e7; stroke:none;" d="M264.667 106.333C264.222 106.778 265.278 106.722 265.333 106.667C265.778 106.222 264.722 106.278 264.667 106.333z"/>
<path style="fill:#89b3db; stroke:none;" d="M244.667 107.333C244.222 107.778 245.278 107.722 245.333 107.667C245.778 107.222 244.722 107.278 244.667 107.333z"/>
<path style="fill:#c5a8b7; stroke:none;" d="M246.667 107.333C246.222 107.778 247.278 107.722 247.333 107.667C247.778 107.222 246.722 107.278 246.667 107.333z"/>
<path style="fill:#7eaedb; stroke:none;" d="M259 107C260.248 107.685 260.548 107.749 262 108C260.752 107.315 260.452 107.251 259 107z"/>
<path style="fill:#95bbde; stroke:none;" d="M250 108C251.769 108.779 253.036 108.912 255 109C253.231 108.221 251.964 108.088 250 108z"/>
<path style="fill:#000000; stroke:none;" d="M220 201C237.326 195.11 244.827 170.674 264 169C263.844 173.976 266.565 176.387 269.715 180C274.908 185.956 279.695 193.593 287 197C285.331 189.291 280.013 182.756 276.15 176C271.543 167.942 268.137 159.436 264.305 151C262.924 147.961 259.514 137.248 255.08 137.921C250.547 138.609 246.596 149.381 244.756 153C236.69 168.867 227.015 184.72 220 201z"/>
<path style="fill:#aa5a58; stroke:none;" d="M109 158C106.173 167.568 111.759 173.158 116.216 181C122.762 192.517 130.881 202.422 140.039 212C148.163 220.496 156.298 226.47 160 238C163.588 232.595 167.228 222.076 163.258 216.09C160.511 211.948 155.652 209.306 152.17 205.83C144.798 198.471 137.047 190.755 130.129 182.999C126.833 179.304 123.474 175.063 120.648 171C118.105 167.344 117.787 163.829 113 163C112.188 160.218 111.547 159.373 109 158z"/>
<path style="fill:#50baf7; stroke:none;" d="M270 163C270.787 167.413 272.752 171.148 275 175C275.696 170.82 272.623 166.165 270 163z"/>
<path style="fill:#2e2025; stroke:none;" d="M130 169C130 171.86 129.635 175.077 130.549 177.83C134.717 190.376 150.328 194.992 162 195C162.917 201.12 165.229 207.162 171 210C166.724 199.504 167.2 190.696 175 182L178 189C182.176 188.914 186.043 188.34 190 187L195 198C200.379 190.894 194.364 176.953 186.996 173.318C177.098 168.434 165.601 175.706 162 185C152.394 179.1 142.104 167.037 130 169z"/>
<path style="fill:#a76e6e; stroke:none;" d="M259 169L263 172C264.095 169.095 261.45 169.12 259 169z"/>
<path style="fill:#aa5a58; stroke:none;" d="M400 169C395.924 173.703 393.052 178.009 389.49 183C387.164 186.26 384.04 188.971 381.425 192C379.383 194.366 375.453 197.637 375.331 201C375.231 203.752 378.625 208.46 381.739 207.503C385.23 206.431 387.777 200.803 389.67 198C394.448 190.925 407.933 177.739 400 169z"/>
<path style="fill:#3b2f32; stroke:none;" d="M129 170C128.52 172.36 128.481 173.663 129 176C129.951 173.715 129.951 172.285 129 170z"/>
<path style="fill:#aa5a58; stroke:none;" d="M214 210C210.864 216.591 206.617 222.773 199 219C199.124 224.994 200.578 230.529 203 236C207.23 233.839 209.428 229.701 213.04 226.665C223.431 217.93 233.814 209.244 242.816 199C246.821 194.442 250.222 184.581 255.873 182.056C259.105 180.612 262.794 184.983 264.675 187.09C268.992 191.924 271.851 197.926 275.899 202.98C277.336 204.774 279.272 207.382 281.924 206.654C284.764 205.876 286.568 202.28 288 200C278.79 193.072 273.281 175.895 261 174C261.957 172.484 262.387 171.661 263 170C252.946 170 250.671 174.329 244 181C238.082 186.918 232.249 193.358 226 199C224.071 200.741 221.716 202.022 220 204C218.142 206.142 217.493 212.445 214 210z"/>
<path style="fill:#b16e6b; stroke:none;" d="M261 174L264 174L263 172C261.365 172.545 261.545 172.365 261 174z"/>
<path style="fill:#b67270; stroke:none;" d="M396 175C395.014 176.479 395 176.203 395 178C396.289 176.557 396.401 176.766 396 175z"/>
<path style="fill:#54baf6; stroke:none;" d="M277 177C277.547 178.875 278.11 180.255 279 182C279.375 179.581 278.693 178.782 277 177z"/>
<path style="fill:#9a5655; stroke:none;" d="M127 179C129.185 183.686 132.802 187.042 137 190C134.815 185.314 131.198 181.958 127 179z"/>
<path style="fill:#513638; stroke:none;" d="M132.333 180.667C132.278 180.722 132.222 181.778 132.667 181.333C132.722 181.278 132.778 180.222 132.333 180.667z"/>
<path style="fill:#000000; stroke:none;" d="M214 263C221.479 258.788 224.388 249.7 232.001 245.839C238.611 242.486 245.627 245.898 252 243C246.07 233.912 241.817 223.124 244.764 212C245.312 209.929 246.103 207.846 247.225 206.015C255.652 192.261 270.529 202.533 277 212C278.254 210.715 279.37 209.968 279.143 207.941C278.851 205.343 276.609 203.028 275.151 201C271.661 196.145 268.754 190.558 264.674 186.171C262.849 184.207 259.947 181.217 257.015 181.331C254.337 181.435 252.597 184.047 251.232 186.015C247.612 191.238 244.452 196.413 239.985 201C232.619 208.564 225.19 216.064 217 222.739C212.41 226.48 206.357 230.487 205.742 237C205.45 240.097 207.058 243.123 207.971 246C209.812 251.8 211.689 257.366 214 263z"/>
<path style="fill:#2e2025; stroke:none;" d="M319 199C322.515 193.798 324.727 188.795 330 185C332.046 189.864 336.772 189.401 339.137 193.303C340.34 195.287 339.111 197.531 339.708 199.625C340.621 202.824 343.37 207.02 345 210C351.167 205.091 358.558 199.847 361.011 192C361.407 190.732 361.759 189.335 361.806 188.001C362.178 177.407 351.887 183.309 348 188C339.583 180.02 325.341 175.997 320.133 190.004C319.049 192.92 319.026 195.936 319 199z"/>
<path style="fill:#aa5a58; stroke:none;" d="M174 182C167.906 189.436 166.777 197.733 169.434 206.91C170.986 212.27 175.249 215.32 173 221C179.174 222.825 186.758 222.486 193 221C187.977 216.149 193.949 212.641 194.581 207C195.341 200.213 193.573 192.688 190 187C185.933 188.289 182.271 188.964 178 189C177.229 186.018 176.158 184.2 174 182z"/>
<path style="fill:#52b7f3; stroke:none;" d="M280 182C280.684 183.58 280.805 183.777 282 185C281.316 183.42 281.195 183.223 280 182z"/>
<path style="fill:#aa5a58; stroke:none;" d="M322 223C328.503 226.271 329.94 229.89 330 237C331.276 233.959 330.256 230.096 332.028 227.279C333.662 224.679 337.328 224.033 340 223C338.861 221.985 338.388 221.691 337 221C339.954 217.972 343.882 214.641 343.632 210C343.429 206.248 340.918 203.247 340.139 199.715C339.697 197.713 340.881 195.366 339.844 193.513C337.711 189.701 332.251 189.674 330 185C321.279 188.201 316.562 202.437 318.861 211C319.978 215.159 325.244 219.424 322 223z"/>
<path style="fill:#7b4445; stroke:none;" d="M330.333 186.667C330.278 186.722 330.222 187.778 330.667 187.333C330.722 187.278 330.778 186.222 330.333 186.667z"/>
<path style="fill:#5ab0e9; stroke:none;" d="M283.333 187.667C283.278 187.722 283.222 188.778 283.667 188.333C283.722 188.278 283.778 187.222 283.333 187.667z"/>
<path style="fill:#6b3d3e; stroke:none;" d="M184.667 188.333C184.222 188.778 185.278 188.722 185.333 188.667C185.778 188.222 184.722 188.278 184.667 188.333z"/>
<path style="fill:#a26263; stroke:none;" d="M224 201C228.31 197.964 231.964 194.31 235 190C230.099 192.285 226.285 196.099 224 201z"/>
<path style="fill:#5b3538; stroke:none;" d="M333.667 190.333C333.222 190.778 334.278 190.722 334.333 190.667C334.778 190.222 333.722 190.278 333.667 190.333z"/>
<path style="fill:#5bb6e8; stroke:none;" d="M224.333 191.667C224.278 191.722 224.222 192.778 224.667 192.333C224.722 192.278 224.778 191.222 224.333 191.667z"/>
<path style="fill:#61aade; stroke:none;" d="M285 191C285.684 192.58 285.805 192.777 287 194C286.316 192.42 286.195 192.223 285 191z"/>
<path style="fill:#533233; stroke:none;" d="M337.667 191.333C337.222 191.778 338.278 191.722 338.333 191.667C338.778 191.222 337.722 191.278 337.667 191.333z"/>
<path style="fill:#5eb2e1; stroke:none;" d="M223.333 193.667C223.278 193.722 223.222 194.778 223.667 194.333C223.722 194.278 223.778 193.222 223.333 193.667z"/>
<path style="fill:#6aabd9; stroke:none;" d="M287 194L288 198C288.393 196.076 288.146 195.64 287 194z"/>
<path style="fill:#ac7272; stroke:none;" d="M283 195C283.684 196.58 283.805 196.777 285 198C284.316 196.42 284.195 196.223 283 195z"/>
<path style="fill:#60b2e1; stroke:none;" d="M221.333 196.667C221.278 196.722 221.222 197.778 221.667 197.333C221.722 197.278 221.778 196.222 221.333 196.667z"/>
<path style="fill:#7e555c; stroke:none;" d="M194 197C194.021 199.849 194.19 202.271 195 205C196.157 202.034 195.62 199.705 194 197z"/>
<path style="fill:#9a9894; stroke:none;" d="M285 197C286.446 199.283 287.31 199.582 290 200C288.535 197.878 287.543 197.526 285 197z"/>
<path style="fill:#3d3844; stroke:none;" d="M195 198L195 200L197 200L197 198L195 198z"/>
<path style="fill:#6bb2dc; stroke:none;" d="M220.333 198.667C220.278 198.722 220.222 199.778 220.667 199.333C220.722 199.278 220.778 198.222 220.333 198.667z"/>
<path style="fill:#2e2025; stroke:none;" d="M245 226C248.371 219.044 249.248 212.871 256 208C258.561 212.432 263.186 213.533 266.347 217.329C268.2 219.553 268.532 222.211 269.501 224.83C270.43 227.342 271.828 229.215 271.088 232.015C269.901 236.504 265.91 239.829 264 244C272.876 244.073 278.863 247.425 287 250C289.229 240.613 283.746 237.973 280.742 230C277.063 220.238 279.695 208.746 268.985 202.363C266.855 201.094 264.422 200.074 262 199.53C246.513 196.051 241.532 214.267 245 226z"/>
<path style="fill:#694040; stroke:none;" d="M319.333 199.667C319.278 199.722 319.222 200.778 319.667 200.333C319.722 200.278 319.778 199.222 319.333 199.667z"/>
<path style="fill:#d3825b; stroke:none;" d="M372 199C373.223 200.195 373.42 200.316 375 201C373.777 199.805 373.58 199.684 372 199z"/>
<path style="fill:#7395b3; stroke:none;" d="M219 200L215 209C217.984 206.574 220.143 203.931 219 200z"/>
<path style="fill:#868e9d; stroke:none;" d="M219 205C221.136 203.451 222.451 202.136 224 200C221.079 201.103 220.103 202.079 219 205z"/>
<path style="fill:#ff914d; stroke:none;" d="M309 242C309 245.984 309.201 250.03 308.83 254C308.612 256.337 307.616 259.224 309.042 261.362C314.13 268.987 330.208 268.003 338 268C341.102 267.999 345.02 268.536 347.582 266.397C354.683 260.466 352.601 247.719 358.318 241.465C364.647 234.541 373.364 230.586 379.331 223C381.103 220.747 383.614 217.958 383.998 215.002C384.308 212.617 382.823 210.156 382 208C378.176 206.869 376.123 201.206 371.997 201.207C367.147 201.207 362.354 209.791 358.996 212.7C351.298 219.368 341.877 222.88 332 225C332 229.113 331.956 232.983 331 237C330.002 233.654 330.353 229.266 328.142 226.414C321.231 217.501 308.325 222.995 301.043 216.768C296.924 213.245 295.712 208.335 292.728 204.063C291.635 202.498 290.192 200.738 288.046 201.346C281.743 203.13 277.145 212.391 280.189 217.996C285.283 227.374 298.31 239.931 309 242z"/>
<path style="fill:#bcb3b3; stroke:none;" d="M290 200L291 201L290 200z"/>
<path style="fill:#8cb1cb; stroke:none;" d="M291 201L292 202L291 201z"/>
<path style="fill:#4bb4f0; stroke:none;" d="M204 202L203 212C204.704 208.796 205.389 205.407 204 202z"/>
<path style="fill:#924f4f; stroke:none;" d="M342 202L342 207C342.83 204.97 342.83 204.03 342 202z"/>
<path style="fill:#504246; stroke:none;" d="M168.333 203.667C168.278 203.722 168.222 204.778 168.667 204.333C168.722 204.278 168.778 203.222 168.333 203.667z"/>
<path style="fill:#9aa8b0; stroke:none;" d="M292 203L293 204L292 203z"/>
<path style="fill:#caac98; stroke:none;" d="M293 205L294 206L293 205z"/>
<path style="fill:#984a4a; stroke:none;" d="M215 212C216.752 210.41 217.794 209.046 219 207C216.453 208.373 215.812 209.218 215 212z"/>
<path style="fill:#664b4e; stroke:none;" d="M254 208L255 209L254 208z"/>
<path style="fill:#ae6b6c; stroke:none;" d="M255 208L256 209L255 208z"/>
<path style="fill:#9a6f70; stroke:none;" d="M253 209L254 210L253 209z"/>
<path style="fill:#f3a39f; stroke:none;" d="M252 242C248.326 244.178 245.199 244.02 241 244L242 255C252.949 255 263.198 256.118 274 257C274.239 254.258 276.486 249.021 274.879 246.603C273.249 244.152 265.833 244.2 263 243C268.187 238.251 271.044 234.056 272 227C266.456 222.383 265.052 209.884 255.015 210.191C250.947 210.316 248.84 215.827 247.746 219C244.737 227.728 244.027 235.739 252 242z"/>
<path style="fill:#a46b6a; stroke:none;" d="M256 209L257 210L256 209z"/>
<path style="fill:#be8f7b; stroke:none;" d="M295 209L296 210L295 209z"/>
<path style="fill:#7a4344; stroke:none;" d="M344.333 209.667C344.278 209.722 344.222 210.778 344.667 210.333C344.722 210.278 344.778 209.222 344.333 209.667z"/>
<path style="fill:#a37b7c; stroke:none;" d="M252 210L253 211L252 210z"/>
<path style="fill:#5c8ebd; stroke:none;" d="M213 211L214 212L213 211z"/>
<path style="fill:#826869; stroke:none;" d="M251 211L252 212L251 211z"/>
<path style="fill:#da7f46; stroke:none;" d="M278.333 211.667C278.278 211.722 278.222 212.778 278.667 212.333C278.722 212.278 278.778 211.222 278.333 211.667z"/>
<path style="fill:#a09293; stroke:none;" d="M296 211L297 212L296 211z"/>
<path style="fill:#5fbdf5; stroke:none;" d="M307 211L307 215C307.71 213.24 307.71 212.759 307 211z"/>
<path style="fill:#6fafe0; stroke:none;" d="M202 212L202 215C202.696 213.446 202.696 213.554 202 212z"/>
<path style="fill:#5e4f51; stroke:none;" d="M250 212L251 213L250 212z"/>
<path style="fill:#8f6161; stroke:none;" d="M259 212L260 213L259 212z"/>
<path style="fill:#845339; stroke:none;" d="M277 212L277 215C277.696 213.446 277.696 213.554 277 212z"/>
<path style="fill:#6c9dcb; stroke:none;" d="M212 213L213 214L212 213z"/>
<path style="fill:#8f6161; stroke:none;" d="M261 213L262 214L261 213z"/>
<path style="fill:#ae8f87; stroke:none;" d="M297 213L298 214L297 213z"/>
<path style="fill:#8f7475; stroke:none;" d="M249 214L250 215L249 214z"/>
<path style="fill:#8f6161; stroke:none;" d="M263 214L264 215L263 214z"/>
<path style="fill:#c9a7b0; stroke:none;" d="M199 219L204 216C201.184 215.389 200.325 216.556 199 219z"/>
<path style="fill:#b37351; stroke:none;" d="M278 215L279 216L278 215z"/>
<path style="fill:#b3b2be; stroke:none;" d="M307.667 215.333C307.222 215.778 308.278 215.722 308.333 215.667C308.778 215.222 307.722 215.278 307.667 215.333z"/>
<path style="fill:#f3a39f; stroke:none;" d="M200 220C204.438 221.26 207.035 220.559 210 217C205.552 216.454 202.395 215.671 200 220z"/>
<path style="fill:#66b1e7; stroke:none;" d="M206 216C207.506 216.683 208.315 216.826 210 217C208.494 216.317 207.685 216.174 206 216z"/>
<path style="fill:#b397a6; stroke:none;" d="M210 216L211 217L210 216z"/>
<path style="fill:#8f7172; stroke:none;" d="M248 216L249 217L248 216z"/>
<path style="fill:#6a474a; stroke:none;" d="M266 216L267 217L266 216z"/>
<path style="fill:#513329; stroke:none;" d="M278.333 216.667C278.278 216.722 278.222 217.778 278.667 217.333C278.722 217.278 278.778 216.222 278.333 216.667z"/>
<path style="fill:#66b1e7; stroke:none;" d="M300 216C301.506 216.683 302.315 216.826 304 217C302.494 216.317 301.685 216.174 300 216z"/>
<path style="fill:#f3a39f; stroke:none;" d="M301 218C304.586 219.696 307.127 219.685 311 219C308.545 215.217 304.586 215.853 301 218z"/>
<path style="fill:#82809a; stroke:none;" d="M164 217C164.545 218.635 164.365 218.455 166 219L166 217L164 217z"/>
<path style="fill:#9c5b37; stroke:none;" d="M279 217L280 218L279 217z"/>
<path style="fill:#519ad1; stroke:none;" d="M166 218C167.648 218.924 169.175 219.449 171 220C169.46 218.197 168.403 218.168 166 218z"/>
<path style="fill:#81a1ca; stroke:none;" d="M195 218C196.506 218.683 197.315 218.826 199 219C197.494 218.317 196.685 218.174 195 218z"/>
<path style="fill:#766365; stroke:none;" d="M247 218L248 219L247 218z"/>
<path style="fill:#000000; stroke:none;" d="M279 218C279.769 222.144 279.268 227.089 280.742 231C282.147 234.729 285.531 237.28 286.987 241C288.282 244.309 287.019 247.66 287.893 251C290.05 259.247 294.782 265.398 298 273C302.745 270.574 305.308 266.343 305 261C308.635 257.872 309.352 247.373 306.972 243.184C304.454 238.752 297.951 235.657 294 232.576C288.371 228.186 284.296 222.628 279 218z"/>
<path style="fill:#b46535; stroke:none;" d="M280 218L281 219L280 218z"/>
<path style="fill:#56a4da; stroke:none;" d="M165 219L165 223C165.71 221.24 165.71 220.759 165 219z"/>
<path style="fill:#38b6ff; stroke:none;" d="M166 219C164.945 227.169 160.854 233.42 158.847 241.09C156.489 250.101 156.648 259.847 154.373 269C152.992 274.559 148.415 284.21 151.518 289.682C154.249 294.498 165.607 291.588 170 291.17C177.87 290.421 188.097 292.771 194.787 287.347C198.406 284.413 199.782 279.536 203.185 276.329C206.156 273.529 211.931 271.995 213.353 267.895C214.688 264.048 211.794 257.73 210.656 254C206.953 241.861 200.424 231.498 198 219C192.144 220.454 187.301 223.303 181 222.906C175.684 222.571 171.244 219.565 166 219z"/>
<path style="fill:#766a83; stroke:none;" d="M171 219L172 221C173.635 220.455 173.455 220.635 174 219L171 219z"/>
<path style="fill:#946b78; stroke:none;" d="M190 219C191.928 220.091 192.77 220.165 195 220C193.231 219.221 191.964 219.088 190 219z"/>
<path style="fill:#549fd6; stroke:none;" d="M198 219L198 222C198.696 220.446 198.696 220.554 198 219z"/>
<path style="fill:#b48786; stroke:none;" d="M247 219L248 220L247 219z"/>
<path style="fill:#b96c3b; stroke:none;" d="M281.333 219.667C281.278 219.722 281.222 220.778 281.667 220.333C281.722 220.278 281.778 219.222 281.333 219.667z"/>
<path style="fill:#c18280; stroke:none;" d="M268 220L268 225C268.83 222.969 268.83 222.031 268 220z"/>
<path style="fill:#5288bb; stroke:none;" d="M173 221L174 222L173 221z"/>
<path style="fill:#4da4e0; stroke:none;" d="M191.667 221.333C191.222 221.778 192.278 221.722 192.333 221.667C192.778 221.222 191.722 221.278 191.667 221.333z"/>
<path style="fill:#ce7f7c; stroke:none;" d="M202 221C203.248 221.685 203.548 221.749 205 222C203.752 221.315 203.452 221.251 202 221z"/>
<path style="fill:#9c7c7d; stroke:none;" d="M246 221L246 224C246.696 222.446 246.696 222.554 246 221z"/>
<path style="fill:#6c82a7; stroke:none;" d="M177.667 222.333C177.222 222.778 178.278 222.722 178.333 222.667C178.778 222.222 177.722 222.278 177.667 222.333z"/>
<path style="fill:#8e7181; stroke:none;" d="M179 222C180.769 222.779 182.036 222.912 184 223C182.231 222.221 180.964 222.088 179 222z"/>
<path style="fill:#7288ab; stroke:none;" d="M184.667 222.333C184.222 222.778 185.278 222.722 185.333 222.667C185.778 222.222 184.722 222.278 184.667 222.333z"/>
<path style="fill:#559fd5; stroke:none;" d="M186.667 222.333C186.222 222.778 187.278 222.722 187.333 222.667C187.778 222.222 186.722 222.278 186.667 222.333z"/>
<path style="fill:#f1985f; stroke:none;" d="M285 224C286.324 226.687 287.313 227.676 290 229C288.451 226.864 287.136 225.549 285 224z"/>
<path style="fill:#7088ac; stroke:none;" d="M164 225L164 228C164.696 226.446 164.696 226.554 164 225z"/>
<path style="fill:#5a99cb; stroke:none;" d="M199.333 225.667C199.278 225.722 199.222 226.778 199.667 226.333C199.722 226.278 199.778 225.222 199.333 225.667z"/>
<path style="fill:#ea8350; stroke:none;" d="M331 226L331 236C332.346 232.793 332.346 229.207 331 226z"/>
<path style="fill:#5a99cb; stroke:none;" d="M200.333 229.667C200.278 229.722 200.222 230.778 200.667 230.333C200.722 230.278 200.778 229.222 200.333 229.667z"/>
<path style="fill:#7883a2; stroke:none;" d="M163 230L164 231L163 230z"/>
<path style="fill:#766365; stroke:none;" d="M271.333 230.667C271.278 230.722 271.222 231.778 271.667 231.333C271.722 231.278 271.778 230.222 271.333 230.667z"/>
<path style="fill:#7f7c97; stroke:none;" d="M201 232L202 233L201 232z"/>
<path style="fill:#707d9f; stroke:none;" d="M162 233L163 234L162 233z"/>
<path style="fill:#5f5052; stroke:none;" d="M270 234L271 235L270 234z"/>
<path style="fill:#677296; stroke:none;" d="M159.333 235.667C159.278 235.722 159.222 236.778 159.667 236.333C159.722 236.278 159.778 235.222 159.333 235.667z"/>
<path style="fill:#766d88; stroke:none;" d="M161 235L162 236L161 235z"/>
<path style="fill:#927985; stroke:none;" d="M203 237C205.33 237.048 205.006 237.203 206 235C204.612 235.691 204.139 235.985 203 237z"/>
<path style="fill:#836c6d; stroke:none;" d="M268 237L269 238L268 237z"/>
<path style="fill:#a88384; stroke:none;" d="M265 240L266 241L265 240z"/>
<path style="fill:#836d6e; stroke:none;" d="M264 241L265 242L264 241z"/>
<path style="fill:#6a595c; stroke:none;" d="M263 242L264 243L263 242z"/>
<path style="fill:#f5965d; stroke:none;" d="M307 242C308.549 248.507 307.135 254.454 307 261C309.352 256.576 311.111 245.592 307 242z"/>
<path style="fill:#cd9b7a; stroke:none;" d="M329.333 242.667C329.278 242.722 329.222 243.778 329.667 243.333C329.722 243.278 329.778 242.222 329.333 242.667z"/>
<path style="fill:#38b6ff; stroke:none;" d="M330.333 242.667C330.278 242.722 330.222 243.778 330.667 243.333C330.722 243.278 330.778 242.222 330.333 242.667z"/>
<path style="fill:#f89763; stroke:none;" d="M232 245C234.865 245.893 237.983 245.409 241 246C241 244.203 240.986 244.478 240 243L232 245z"/>
<path style="fill:#a7a29b; stroke:none;" d="M331 243L332 244L331 243z"/>
<path style="fill:#5e4f51; stroke:none;" d="M265 244C267.332 244.985 269.457 244.981 272 245C269.668 244.015 267.543 244.019 265 244z"/>
<path style="fill:#75aac8; stroke:none;" d="M330 244L331 245L330 244z"/>
<path style="fill:#ff914d; stroke:none;" d="M236 265C235.973 268.302 234.336 273.558 235.643 276.581C237.286 280.381 250.114 283.55 253.068 280.393C255.057 278.267 254.38 274.583 255.477 272C257.925 266.236 261.394 260.749 264 255C258.823 255 249.807 257.28 245.148 255.382C238.997 252.876 243.515 243.949 233.999 245.624C220.579 247.988 223.783 264.595 236 265z"/>
<path style="fill:#a88384; stroke:none;" d="M275 245L276 246L275 245z"/>
<path style="fill:#45383b; stroke:none;" d="M276.667 245.333C276.222 245.778 277.278 245.722 277.333 245.667C277.778 245.222 276.722 245.278 276.667 245.333z"/>
<path style="fill:#ff914d; stroke:none;" d="M276 246C275.152 249.708 274.174 253.181 274 257L267 256C267.101 261.179 267.707 266.923 267.337 272C267.116 275.033 265.259 278.786 268.573 280.933C270.629 282.264 273.763 281.276 276 281C276.646 277.87 277.066 274.05 278.937 271.375C282.951 265.634 296.012 259.82 287.581 251.725C286.259 250.456 284.571 249.446 282.998 248.524C280.696 247.175 278.595 246.47 276 246z"/>
<path style="fill:#78605a; stroke:none;" d="M279 246L280 247L279 246M281 247L282 248L281 247z"/>
<path style="fill:#906c5c; stroke:none;" d="M284 249L285 250L284 249z"/>
<path style="fill:#b97553; stroke:none;" d="M285.667 250.333C285.222 250.778 286.278 250.722 286.333 250.667C286.778 250.222 285.722 250.278 285.667 250.333z"/>
<path style="fill:#69add3; stroke:none;" d="M329 252L329 255C330.195 253.777 330.316 253.58 331 252L329 252z"/>
<path style="fill:#f3a39f; stroke:none;" d="M223 254C218.482 258.762 214.959 263.693 213 270C216.711 272.614 220.986 275.956 223.231 280C226.536 285.952 227.147 290.592 234 294C233.939 290.437 233.507 287.3 235 284C230.766 281.48 226.333 276.321 226.258 271C226.222 268.48 228.158 266.487 228.297 264C228.508 260.232 225.498 256.464 223 254z"/>
<path style="fill:#b49f8f; stroke:none;" d="M330 254L331 255L330 254z"/>
<path style="fill:#f99a76; stroke:none;" d="M243 255C245.613 256.098 248.165 255.993 251 256C248.387 254.902 245.835 255.007 243 255z"/>
<path style="fill:#6c4744; stroke:none;" d="M264.667 255.333C264.222 255.778 265.278 255.722 265.333 255.667C265.778 255.222 264.722 255.278 264.667 255.333z"/>
<path style="fill:#2e2025; stroke:none;" d="M263 256C261.779 264.559 253.944 270.022 256 279C253.06 280.948 252.557 283.868 250.444 286.576C244.772 293.841 242.006 297.525 242 307C246.452 303.768 248.053 297.831 253.004 294.742C262.159 289.03 269.187 300.064 270 308C276.553 298.463 268.625 288.595 266.829 279C265.488 271.842 266.707 263.361 267 256L263 256z"/>
<path style="fill:#ca7543; stroke:none;" d="M262 257L262 261C262.71 259.24 262.71 258.76 262 257z"/>
<path style="fill:#71b2e1; stroke:none;" d="M212 259L213 264C213.651 261.766 213.318 260.926 212 259z"/>
<path style="fill:#2e2025; stroke:none;" d="M108 323C108.041 326.536 107.911 328.998 111 331C110.378 323.868 107.096 316.857 111.09 310.015C113.592 305.728 121.846 302.996 122.292 297.907C122.533 295.156 120.459 292.482 119.559 290C117.784 285.108 117.212 278.934 119.148 274C124.028 261.562 135.264 267.357 139 277C141.797 270.126 134.957 261.573 128 260.485C123.299 259.749 117.855 262.282 114 264.711C107.458 268.832 101.907 274.593 97.6196 281C95.7106 283.853 93.5939 287.351 94.358 290.957C95.2521 295.176 101.26 296.253 101.596 300.44C101.728 302.074 100.675 303.667 99.9051 305.015C97.5494 309.141 87.8865 326.405 100.005 324.467C102.721 324.032 105.24 323.241 108 323z"/>
<path style="fill:#895135; stroke:none;" d="M266 260L267 261L266 260z"/>
<path style="fill:#f3a39f; stroke:none;" d="M289 260C285.628 264.72 280.743 268.828 286 274C281.737 279.183 279.647 283.671 273 286C273.36 289.37 273.117 292.622 273 296C283.132 291.717 292.218 281.642 300 274C296.99 269.38 293.236 265.019 291 260L289 260z"/>
<path style="fill:#6f4331; stroke:none;" d="M261 261L262 262L261 261z"/>
<path style="fill:#ca7543; stroke:none;" d="M267.333 261.667C267.278 261.722 267.222 262.778 267.667 262.333C267.722 262.278 267.778 261.222 267.333 261.667z"/>
<path style="fill:#b88f69; stroke:none;" d="M305.333 261.667C305.278 261.722 305.222 262.778 305.667 262.333C305.722 262.278 305.778 261.222 305.333 261.667z"/>
<path style="fill:#887e6e; stroke:none;" d="M306 261L306 263C307.635 262.455 307.455 262.635 308 261L306 261z"/>
<path style="fill:#b49f8f; stroke:none;" d="M327.333 261.667C327.278 261.722 327.222 262.778 327.667 262.333C327.722 262.278 327.778 261.222 327.333 261.667z"/>
<path style="fill:#43b3f5; stroke:none;" d="M328.333 261.667C328.278 261.722 328.222 262.778 328.667 262.333C328.722 262.278 328.778 261.222 328.333 261.667z"/>
<path style="fill:#adb4cf; stroke:none;" d="M214 265C215.457 263.897 215.897 263.457 217 262C214.876 262.899 214.899 262.876 214 265z"/>
<path style="fill:#965838; stroke:none;" d="M260 262L261 263L260 262z"/>
<path style="fill:#5a9bc4; stroke:none;" d="M307 262C307.545 263.635 307.365 263.455 309 264L309 262L307 262z"/>
<path style="fill:#a29288; stroke:none;" d="M309 262L310 263L309 262z"/>
<path style="fill:#f4977a; stroke:none;" d="M229 263L228 266C229.766 265.021 229.955 264.778 229 263z"/>
<path style="fill:#c38b66; stroke:none;" d="M306.667 263.333C306.222 263.778 307.278 263.722 307.333 263.667C307.778 263.222 306.722 263.278 306.667 263.333z"/>
<path style="fill:#44b3f4; stroke:none;" d="M309 263C310.98 264.884 312.31 265.469 315 266C313.051 264.427 311.412 263.709 309 263z"/>
<path style="fill:#9ca4a6; stroke:none;" d="M311 263L312 264L311 263z"/>
<path style="fill:#c09d85; stroke:none;" d="M328 263L329 264L328 263z"/>
<path style="fill:#2e2025; stroke:none;" d="M371 284C373.954 279.564 378.199 275.763 382.09 272.109C383.643 270.649 385.636 268.803 387.957 269.037C391.981 269.444 393.44 274.836 394.363 278C395.272 281.115 397.431 284.735 397.336 288C397.219 291.976 393.964 295.738 392 299C396.736 298.986 404.574 298.906 403.632 292C403.316 289.682 401.582 287.873 401.249 285.576C400.328 279.205 403.266 273.966 398.431 268.188C391.04 259.356 374.555 261.957 370.855 273.001C369.632 276.652 370.534 280.308 371 284z"/>
<path style="fill:#895135; stroke:none;" d="M259 264L259 267C259.696 265.446 259.696 265.554 259 264M266 264L267 265L266 264z"/>
<path style="fill:#ff914d; stroke:none;" d="M298 303C300.913 303.92 303.947 306.138 307 306.357C312.967 306.786 318.779 299.76 321 295C322.624 300.493 319.531 310.981 323.028 315.397C324.912 317.776 329.351 316.916 332 317.17C341.074 318.037 348.989 317.14 358 316C355.497 320.709 351.143 326.537 350.723 332C350.323 337.207 355.531 340.42 360 340C361.155 345.475 359.001 351.309 359 357C362.856 355.508 366.859 350.825 370.998 350.776C373.275 350.749 375.852 352.319 378 353L378 355C370.87 357.189 372 362.582 372 369C379.748 369 387.299 368.377 395 368.039C397.543 367.928 402.109 368.862 404.167 366.972C407.074 364.305 403.049 353.74 403.004 350C402.868 338.647 408.661 322.19 401.995 312.093C399.835 308.823 396.336 306.86 393 305C389.93 311.343 390.365 318.79 387 325C387.213 318.617 389.722 312.453 390 306C382.293 312.266 377.783 319.912 374 329C371.189 319.49 374.367 311.197 376 302C368.95 304.27 364.392 305.895 361 313C357.706 303.274 355.764 292.884 352.717 283C351.643 279.516 350.851 273.972 347.698 271.693C344.804 269.601 339.377 271.024 336 270.996C332.738 270.969 329.836 270.36 327 272C322.874 268.668 316.972 267.432 312.001 265.617C310.003 264.887 307.634 263.868 305.609 265.071C302.026 267.199 299.782 272.903 296.921 275.961C293.843 279.251 288.24 282.932 288.375 288C288.551 294.587 296.258 297.326 298 303z"/>
<path style="fill:#b09988; stroke:none;" d="M309 264L310 265L309 264z"/>
<path style="fill:#9ca4a6; stroke:none;" d="M313 264L314 265L313 264z"/>
<path style="fill:#000000; stroke:none;" d="M233 281C235.014 275.596 235.984 270.771 236 265C232.949 265.074 229.648 265.091 227.333 267.434C222.871 271.95 228.889 278.87 233 281z"/>
<path style="fill:#b49f8f; stroke:none;" d="M311 265L312 266L311 265z"/>
<path style="fill:#76aac7; stroke:none;" d="M315 265L316 266L315 265z"/>
<path style="fill:#c19c84; stroke:none;" d="M316 265L317 266L316 265z"/>
<path style="fill:#5e4f51; stroke:none;" d="M124 266L125 267L124 266z"/>
<path style="fill:#f3a39f; stroke:none;" d="M110 312C115.062 309.215 120.259 308.485 126 308.09C129.275 307.864 132.903 308.447 135.91 306.821C139.645 304.801 143.238 299.874 139 297C142.43 288.094 142.887 279.916 136.585 272.012C133.179 267.74 127.258 263.857 122.394 268.434C117.568 272.975 118.031 284.122 119.802 290C120.558 292.507 122.802 295.257 122.262 297.985C121.169 303.501 112.524 306.603 110 312z"/>
<path style="fill:#9d8384; stroke:none;" d="M130 266L131 267L130 266z"/>
<path style="fill:#7c4a33; stroke:none;" d="M265 266L266 267L265 266z"/>
<path style="fill:#82a8bd; stroke:none;" d="M314 266L315 267L314 266z"/>
<path style="fill:#43b3f5; stroke:none;" d="M315 266C317.013 267.225 318.659 267.645 321 268C318.958 266.584 317.489 266.255 315 266z"/>
<path style="fill:#836e6f; stroke:none;" d="M132 267L133 268L132 267z"/>
<path style="fill:#a4603c; stroke:none;" d="M258 267L259 268L258 267z"/>
<path style="fill:#7c4a33; stroke:none;" d="M266 267L267 268L266 267z"/>
<path style="fill:#c09d85; stroke:none;" d="M316 267L317 268L316 267z"/>
<path style="fill:#82a8bd; stroke:none;" d="M317 267L318 268L317 267z"/>
<path style="fill:#69add3; stroke:none;" d="M321 267L321 269C322.635 268.455 322.455 268.635 323 267L321 267z"/>
<path style="fill:#ce9a79; stroke:none;" d="M323.667 267.333C323.222 267.778 324.278 267.722 324.333 267.667C324.778 267.222 323.722 267.278 323.667 267.333z"/>
<path style="fill:#e39c6a; stroke:none;" d="M347 267L347 271C347.71 269.24 347.71 268.759 347 267z"/>
<path style="fill:#a88384; stroke:none;" d="M133 268L134 269L133 268z"/>
<path style="fill:#7c4a33; stroke:none;" d="M257 268L258 269L257 268z"/>
<path style="fill:#f69581; stroke:none;" d="M282 268C282.031 269.832 281.921 269.559 283 271C282.749 269.548 282.685 269.248 282 268z"/>
<path style="fill:#8ea6b1; stroke:none;" d="M319.667 268.333C319.222 268.778 320.278 268.722 320.333 268.667C320.778 268.222 319.722 268.278 319.667 268.333z"/>
<path style="fill:#38b6ff; stroke:none;" d="M322 268L326 271C331.901 269.595 337.968 270 344 270C338.175 267.556 328.409 268.132 322 268z"/>
<path style="fill:#8fa5b1; stroke:none;" d="M328 268C329.248 268.685 329.548 268.749 331 269C329.752 268.315 329.452 268.251 328 268z"/>
<path style="fill:#ce9a79; stroke:none;" d="M331 268C334.163 269.327 337.586 269 341 269C337.837 267.673 334.414 268 331 268z"/>
<path style="fill:#9c8a73; stroke:none;" d="M341 268C342.969 269.063 344.798 269.532 347 270C345.266 267.997 343.645 268.077 341 268z"/>
<path style="fill:#9d6a69; stroke:none;" d="M386 268L387 269L386 268z"/>
<path style="fill:#f3a39f; stroke:none;" d="M373 329C376.718 325.321 378.212 320.308 381.105 316.004C383.343 312.674 386.691 310.269 388.841 306.91C390.414 304.454 390.579 301.57 391.853 299C394.29 294.088 396.85 290.5 398 285C394.059 281.052 394.714 271.469 389.772 269.137C384.841 266.809 374.542 278.252 372.433 282.209C368.252 290.052 374.643 294.168 375.593 301.09C375.96 303.758 374.571 306.395 374.209 309C373.321 315.391 373.053 322.539 373 329z"/>
<path style="fill:#a88384; stroke:none;" d="M134 269L135 270L134 269z"/>
<path style="fill:#b0673e; stroke:none;" d="M256 269L257 270L256 269z"/>
<path style="fill:#55352c; stroke:none;" d="M267.333 269.667C267.278 269.722 267.222 270.778 267.667 270.333C267.722 270.278 267.778 269.222 267.333 269.667z"/>
<path style="fill:#000000; stroke:none;" d="M280 269C279.071 273.063 278.089 276.806 278 281C281.521 279.751 283.479 277.73 286 275C284.205 272.492 282.508 270.795 280 269z"/>
<path style="fill:#a7a29b; stroke:none;" d="M323 269C324.248 269.685 324.548 269.749 326 270C324.752 269.315 324.452 269.251 323 269z"/>
<path style="fill:#4f9abe; stroke:none;" d="M344 269L345 270L344 269z"/>
<path style="fill:#8f6161; stroke:none;" d="M384 269L385 270L384 269z"/>
<path style="fill:#836a6b; stroke:none;" d="M120 270L121 271L120 270z"/>
<path style="fill:#a88384; stroke:none;" d="M135 270L136 271L135 270z"/>
<path style="fill:#ff914d; stroke:none;" d="M157 293C155.82 298.103 154.113 302.703 154 308C150.028 304.36 147.979 299.433 143 297C139.357 303.556 135.724 307.692 128 308.711C123.266 309.335 115.059 307.217 111.603 311.318C109.354 313.988 109.833 318.755 110.093 322C110.811 330.93 115.748 340.039 114 349C119.599 351.913 125.2 349.838 131 351.51C137.827 353.478 142.86 359.855 149 363.197C153.353 365.566 157.535 365.47 160 361C154.477 357.229 149.185 353.257 145 348C148.723 346.601 151.079 344.609 154 342C153.352 339.291 153.058 336.784 153 334C156.106 338.604 159.603 342.656 163 347C168.106 334.831 160.96 322.61 156 312C162.909 313.287 169.95 314.427 177 313.91C181.401 313.587 185.569 312.193 190 312C190.714 306.351 190.506 300.683 194 296C195.551 297.679 197.01 298.967 199.019 300.124C201.683 301.659 206.518 304.201 209.165 301.254C210.888 299.335 209.781 296.296 210.316 294C211.809 287.587 216.853 283.303 223 286C225.657 280.079 219.257 269.558 212 270.963C201.813 272.935 200.621 284.092 192.946 288.583C183.545 294.083 167.597 292.781 157 293z"/>
<path style="fill:#f29467; stroke:none;" d="M278 270L276 280C278.763 277.678 279.208 273.464 280 270L278 270z"/>
<path style="fill:#b49f8f; stroke:none;" d="M327 270L328 271L327 270z"/>
<path style="fill:#c09d85; stroke:none;" d="M329.667 270.333C329.222 270.778 330.278 270.722 330.333 270.667C330.778 270.222 329.722 270.278 329.667 270.333z"/>
<path style="fill:#9ba3a6; stroke:none;" d="M331 270C332.248 270.685 332.548 270.749 334 271C332.752 270.315 332.452 270.251 331 270z"/>
<path style="fill:#69add3; stroke:none;" d="M334 270C336.332 270.985 338.457 270.981 341 271C338.668 270.015 336.543 270.019 334 270z"/>
<path style="fill:#969898; stroke:none;" d="M341.667 270.333C341.222 270.778 342.278 270.722 342.333 270.667C342.778 270.222 341.722 270.278 341.667 270.333z"/>
<path style="fill:#d6946a; stroke:none;" d="M343.667 270.333C343.222 270.778 344.278 270.722 344.333 270.667C344.778 270.222 343.722 270.278 343.667 270.333z"/>
<path style="fill:#a97271; stroke:none;" d="M383 270L384 271L383 270z"/>
<path style="fill:#766567; stroke:none;" d="M136 271L137 272L136 271z"/>
<path style="fill:#9ba3a6; stroke:none;" d="M210 271L211 272L210 271z"/>
<path style="fill:#7b4a33; stroke:none;" d="M255 271L256 272L255 271z"/>
<path style="fill:#82a8bd; stroke:none;" d="M326 271L327 272L326 271z"/>
<path style="fill:#b57a78; stroke:none;" d="M382 271L383 272L382 271z"/>
<path style="fill:#836c6d; stroke:none;" d="M119 272L120 273L119 272z"/>
<path style="fill:#b49f8f; stroke:none;" d="M208 272L209 273L208 272z"/>
<path style="fill:#895135; stroke:none;" d="M267.333 272.667C267.278 272.722 267.222 273.778 267.667 273.333C267.722 273.278 267.778 272.222 267.333 272.667z"/>
<path style="fill:#a97271; stroke:none;" d="M381 272L382 273L381 272z"/>
<path style="fill:#a7a29b; stroke:none;" d="M206 273L207 274L206 273z"/>
<path style="fill:#bd6e40; stroke:none;" d="M254 273L254 277C254.71 275.24 254.71 274.759 254 273z"/>
<path style="fill:#8f6161; stroke:none;" d="M380 273L381 274L380 273z"/>
<path style="fill:#5e4f51; stroke:none;" d="M138 274L139 275L138 274z"/>
<path style="fill:#6a474a; stroke:none;" d="M379 274L380 275L379 274z"/>
<path style="fill:#b57a78; stroke:none;" d="M393.333 274.667C393.278 274.722 393.222 275.778 393.667 275.333C393.722 275.278 393.778 274.222 393.333 274.667z"/>
<path style="fill:#8f7475; stroke:none;" d="M118.333 275.667C118.278 275.722 118.222 276.778 118.667 276.333C118.722 276.278 118.778 275.222 118.333 275.667z"/>
<path style="fill:#82a8bd; stroke:none;" d="M203 275L204 276L203 275M202 276L203 277L202 276z"/>
<path style="fill:#b0673e; stroke:none;" d="M265.333 276.667C265.278 276.722 265.222 277.778 265.667 277.333C265.722 277.278 265.778 276.222 265.333 276.667z"/>
<path style="fill:#c18f8f; stroke:none;" d="M118 277L118 285C119.161 282.23 119.161 279.77 118 277z"/>
<path style="fill:#a68284; stroke:none;" d="M139.667 277.333C139.222 277.778 140.278 277.722 140.333 277.667C140.778 277.222 139.722 277.278 139.667 277.333z"/>
<path style="fill:#82a8bd; stroke:none;" d="M201 277L202 278L201 277z"/>
<path style="fill:#a49f9c; stroke:none;" d="M234 277C234.98 278.783 234.908 278.594 237 279C235.861 277.985 235.388 277.691 234 277z"/>
<path style="fill:#55352c; stroke:none;" d="M255.333 277.667C255.278 277.722 255.222 278.778 255.667 278.333C255.722 278.278 255.778 277.222 255.333 277.667z"/>
<path style="fill:#a97271; stroke:none;" d="M377 277L378 278L377 277M376 278L377 279L376 278z"/>
<path style="fill:#9d6a69; stroke:none;" d="M394 278L394 281C394.696 279.446 394.696 279.554 394 278z"/>
<path style="fill:#e6b0ac; stroke:none;" d="M229 279C230.154 281.249 230.751 281.846 233 283C231.84 281.019 230.951 280.26 229 279z"/>
<path style="fill:#a9bbc6; stroke:none;" d="M233 279L233 283C233.911 281.623 234.404 280.56 235 279L233 279z"/>
<path style="fill:#38b6ff; stroke:none;" d="M235 279C235.094 281.205 235.356 282.894 236 285L233 286C233.991 288.706 234.713 291.132 235 294L230 293C226.579 300.229 226 306.096 226 314C230.866 309.398 234.048 306.042 241 305C241.444 295.297 248.624 291.249 252 283C246.392 281.545 240.742 279.774 235 279z"/>
<path style="fill:#80bee3; stroke:none;" d="M238 279L239 280L238 279z"/>
<path style="fill:#caac98; stroke:none;" d="M239 279L240 280L239 279z"/>
<path style="fill:#835959; stroke:none;" d="M373.667 279.333C373.222 279.778 374.278 279.722 374.333 279.667C374.778 279.222 373.722 279.278 373.667 279.333z"/>
<path style="fill:#8ea6b1; stroke:none;" d="M199 280L200 281L199 280z"/>
<path style="fill:#72b7e2; stroke:none;" d="M234 280L234 284C234.71 282.24 234.71 281.759 234 280z"/>
<path style="fill:#cbac97; stroke:none;" d="M242.667 280.333C242.222 280.778 243.278 280.722 243.333 280.667C243.778 280.222 242.722 280.278 242.667 280.333z"/>
<path style="fill:#965838; stroke:none;" d="M253 280L254 281L253 280M267 280L268 281L267 280z"/>
<path style="fill:#c7b9ad; stroke:none;" d="M276 280L276 283C277.797 283 277.522 282.986 279 282C277.777 280.805 277.58 280.684 276 280z"/>
<path style="fill:#e3b5b1; stroke:none;" d="M277 285C279.475 283.587 280.587 282.475 282 280C279.313 281.324 278.324 282.313 277 285z"/>
<path style="fill:#503636; stroke:none;" d="M370 280L370 283C370.696 281.446 370.696 281.554 370 280z"/>
<path style="fill:#6a595c; stroke:none;" d="M372 280L373 281L372 280z"/>
<path style="fill:#8cbed9; stroke:none;" d="M245 281C246.248 281.685 246.549 281.749 248 282C246.752 281.315 246.452 281.251 245 281z"/>
<path style="fill:#a0b3bc; stroke:none;" d="M272.667 281.333C272.222 281.778 273.278 281.722 273.333 281.667C273.778 281.222 272.722 281.278 272.667 281.333z"/>
<path style="fill:#72c2f1; stroke:none;" d="M274 281C274.545 282.635 274.365 282.455 276 283L276 281L274 281z"/>
<path style="fill:#b49f8f; stroke:none;" d="M198 282L199 283L198 282z"/>
<path style="fill:#7fc0e6; stroke:none;" d="M250.667 282.333C250.222 282.778 251.278 282.722 251.333 282.667C251.778 282.222 250.722 282.278 250.667 282.333z"/>
<path style="fill:#6f5b56; stroke:none;" d="M252 282L253 283L252 282z"/>
<path style="fill:#a8b7bf; stroke:none;" d="M268 282L269 283L268 282z"/>
<path style="fill:#38b6ff; stroke:none;" d="M272 292C272.811 289.761 272.529 288.353 272 286C274.035 284.774 274.326 284.297 275 282C267.142 282.258 268.69 286.505 272 292z"/>
<path style="fill:#6a474a; stroke:none;" d="M395 282L396 283L395 282z"/>
<path style="fill:#aa5a58; stroke:none;" d="M229 336C228.613 326.984 226.773 317.865 225.325 309C223.831 299.86 223.642 291.71 220 283C202.674 288.94 212.91 307.263 216.656 319C219.125 326.737 219.401 335.121 229 336z"/>
<path style="fill:#e6e4e4; stroke:none;" d="M275 283L275 285L277 285L277 283L275 283z"/>
<path style="fill:#b7b9ce; stroke:none;" d="M235 284L236 285L235 284z"/>
<path style="fill:#7aa6c3; stroke:none;" d="M251.333 284.667C251.278 284.722 251.222 285.778 251.667 285.333C251.722 285.278 251.778 284.222 251.333 284.667z"/>
<path style="fill:#60798d; stroke:none;" d="M267.333 284.667C267.278 284.722 267.222 285.778 267.667 285.333C267.722 285.278 267.778 284.222 267.333 284.667z"/>
<path style="fill:#f39a6a; stroke:none;" d="M287 284L286 285L287 290C287.951 288.059 288.439 286.102 289 284L287 284z"/>
<path style="fill:#b67f77; stroke:none;" d="M370 284L370 287C371.015 285.861 371.309 285.388 372 284L370 284z"/>
<path style="fill:#765052; stroke:none;" d="M396 284L397 285L396 284z"/>
<path style="fill:#6a595c; stroke:none;" d="M118.333 285.667C118.278 285.722 118.222 286.778 118.667 286.333C118.722 286.278 118.778 285.222 118.333 285.667z"/>
<path style="fill:#de8d72; stroke:none;" d="M221 285C221.251 286.452 221.315 286.752 222 288C223.195 286.777 223.316 286.58 224 285L221 285z"/>
<path style="fill:#a8b1cd; stroke:none;" d="M233.667 285.333C233.222 285.778 234.278 285.722 234.333 285.667C234.778 285.222 233.722 285.278 233.667 285.333z"/>
<path style="fill:#95c5e9; stroke:none;" d="M274 285L275 286L274 285z"/>
<path style="fill:#60c2f9; stroke:none;" d="M150 286C149.603 288.931 149.573 290.246 152 292C151.439 289.898 150.951 287.941 150 286z"/>
<path style="fill:#b49f8f; stroke:none;" d="M196 286L197 287L196 286z"/>
<path style="fill:#000000; stroke:none;" d="M224 286C222.067 290.846 224.27 295.037 225 300C229.38 294.884 229.376 290.262 224 286z"/>
<path style="fill:#585c66; stroke:none;" d="M251 286L252 287L251 286z"/>
<path style="fill:#5f8baa; stroke:none;" d="M268 286L269 287L268 286z"/>
<path style="fill:#c4bac9; stroke:none;" d="M272.333 286.667C272.278 286.722 272.222 287.778 272.667 287.333C272.722 287.278 272.778 286.222 272.333 286.667z"/>
<path style="fill:#000000; stroke:none;" d="M286 286C282.358 289.386 278.806 291.715 279 297C283.672 295.575 287.889 291.055 286 286z"/>
<path style="fill:#9ba3a6; stroke:none;" d="M195 287L196 288L195 287z"/>
<path style="fill:#94bfe3; stroke:none;" d="M233 287L234 288L233 287z"/>
<path style="fill:#5f8baa; stroke:none;" d="M269 287L270 288L269 287z"/>
<path style="fill:#9c7c7d; stroke:none;" d="M397 287L397 290C397.696 288.446 397.696 288.554 397 287z"/>
<path style="fill:#75aac8; stroke:none;" d="M193 288L194 289L193 288z"/>
<path style="fill:#5b93b7; stroke:none;" d="M248 288L249 289L248 288z"/>
<path style="fill:#66c3fa; stroke:none;" d="M273.333 288.667C273.278 288.722 273.222 289.778 273.667 289.333C273.722 289.278 273.778 288.222 273.333 288.667z"/>
<path style="fill:#a88384; stroke:none;" d="M119 289L120 290L119 289z"/>
<path style="fill:#82a8bd; stroke:none;" d="M191 289L192 290L191 289z"/>
<path style="fill:#d5aeaf; stroke:none;" d="M228 289C228.684 290.58 228.805 290.777 230 292C229.316 290.42 229.195 290.223 228 289z"/>
<path style="fill:#9faecf; stroke:none;" d="M234 289L234 294C234.83 291.969 234.83 291.03 234 289z"/>
<path style="fill:#5f8baa; stroke:none;" d="M247 289L248 290L247 289z"/>
<path style="fill:#535158; stroke:none;" d="M270 289L271 290L270 289z"/>
<path style="fill:#6a595c; stroke:none;" d="M119 290L120 291L119 290z"/>
<path style="fill:#75aac8; stroke:none;" d="M186 290C187.248 290.685 187.548 290.749 189 291C187.752 290.315 187.452 290.251 186 290z"/>
<path style="fill:#5f8baa; stroke:none;" d="M246 290L247 291L246 290z"/>
<path style="fill:#acbfd9; stroke:none;" d="M273 290L274 291L273 290z"/>
<path style="fill:#aa5a58; stroke:none;" d="M281 338C293.343 337.085 289.431 322.762 291.532 314C292.68 309.215 295.767 305.545 299 302C295.805 297.806 291.838 294.525 289 290C281.044 294 282.479 301.679 282.646 309C282.864 318.54 281.558 328.451 281 338z"/>
<path style="fill:#69add3; stroke:none;" d="M167 291C168.506 291.683 169.315 291.826 171 292C169.494 291.317 168.685 291.174 167 291z"/>
<path style="fill:#9ba3a6; stroke:none;" d="M171 291C173.89 292.213 176.874 291.998 180 292C177.11 290.787 174.126 291.002 171 291z"/>
<path style="fill:#cd9b7a; stroke:none;" d="M180 291C181.506 291.683 182.315 291.826 184 292C182.494 291.317 181.685 291.174 180 291z"/>
<path style="fill:#606772; stroke:none;" d="M271 291L272 292L271 291z"/>
<path style="fill:#a88384; stroke:none;" d="M396 291L397 292L396 291z"/>
<path style="fill:#8f7475; stroke:none;" d="M120 292L121 293L120 292z"/>
<path style="fill:#7ac8f2; stroke:none;" d="M152 292C153.769 292.779 155.036 292.912 157 293C155.231 292.221 153.964 292.088 152 292z"/>
<path style="fill:#99a1a4; stroke:none;" d="M157 292C158.506 292.683 159.315 292.826 161 293C159.494 292.317 158.685 292.174 157 292z"/>
<path style="fill:#cd9b7a; stroke:none;" d="M161 292C162.248 292.685 162.549 292.749 164 293C162.752 292.315 162.452 292.251 161 292z"/>
<path style="fill:#b2b6c8; stroke:none;" d="M229 292L229 294C230.635 293.455 230.455 293.635 231 292L229 292z"/>
<path style="fill:#afb2c6; stroke:none;" d="M272 292L273 293L272 292z"/>
<path style="fill:#90c2d0; stroke:none;" d="M153 293C154.506 293.683 155.315 293.826 157 294C155.494 293.317 154.685 293.174 153 293z"/>
<path style="fill:#535158; stroke:none;" d="M244 293L245 294L244 293z"/>
<path style="fill:#aa5a58; stroke:none;" d="M254.001 293.746C237.882 299.74 241.705 331.16 260.985 323.142C275.256 317.208 271.027 287.415 254.001 293.746z"/>
<path style="fill:#856567; stroke:none;" d="M260.667 293.333C260.222 293.778 261.278 293.722 261.333 293.667C261.778 293.222 260.722 293.278 260.667 293.333z"/>
<path style="fill:#8f6161; stroke:none;" d="M272.333 293.667C272.278 293.722 272.222 294.778 272.667 294.333C272.722 294.278 272.778 293.222 272.333 293.667z"/>
<path style="fill:#c5c5d8; stroke:none;" d="M276 295C277.58 294.316 277.777 294.195 279 293C277.42 293.684 277.223 293.805 276 295z"/>
<path style="fill:#a88384; stroke:none;" d="M395 293L396 294L395 293z"/>
<path style="fill:#776466; stroke:none;" d="M121 294L122 295L121 294z"/>
<path style="fill:#b4b3a5; stroke:none;" d="M154 294C155.248 294.685 155.548 294.749 157 295C155.752 294.315 155.452 294.251 154 294z"/>
<path style="fill:#5f8baa; stroke:none;" d="M243 294L244 295L243 294z"/>
<path style="fill:#9e7072; stroke:none;" d="M283 294L282 299C283.318 297.074 283.651 296.234 283 294z"/>
<path style="fill:#a88384; stroke:none;" d="M122 295L123 296L122 295z"/>
<path style="fill:#e48e56; stroke:none;" d="M155 295L155 299C155.911 297.623 156.404 296.56 157 295L155 295z"/>
<path style="fill:#6ca8d4; stroke:none;" d="M228 295C226.957 297.095 226.397 298.699 226 301C227.631 298.957 228.444 297.583 228 295z"/>
<path style="fill:#523d40; stroke:none;" d="M272.333 295.667C272.278 295.722 272.222 296.778 272.667 296.333C272.722 296.278 272.778 295.222 272.333 295.667z"/>
<path style="fill:#7ec1ee; stroke:none;" d="M275 295L276 296L275 295z"/>
<path style="fill:#38b6ff; stroke:none;" d="M272 306C276.165 306.84 278.477 308.613 281 312C283.397 306.234 280.086 299.907 277 295C272.781 297.587 272.853 301.424 272 306z"/>
<path style="fill:#91bad8; stroke:none;" d="M277 295L280 302C281.306 298.646 280.084 296.617 277 295z"/>
<path style="fill:#776567; stroke:none;" d="M394 295L395 296L394 295z"/>
<path style="fill:#a88384; stroke:none;" d="M123 296L124 297L123 296z"/>
<path style="fill:#896b74; stroke:none;" d="M224 296L224 301C224.83 298.969 224.83 298.031 224 296z"/>
<path style="fill:#5b93b7; stroke:none;" d="M242 296L243 297L242 296z"/>
<path style="fill:#b1b4cc; stroke:none;" d="M273 296L274 297L273 296z"/>
<path style="fill:#a88384; stroke:none;" d="M393 296L394 297L393 296z"/>
<path style="fill:#5e4f51; stroke:none;" d="M123 297L124 298L123 297z"/>
<path style="fill:#575b65; stroke:none;" d="M242 297L243 298L242 297z"/>
<path style="fill:#a08c93; stroke:none;" d="M281 297L281 301C281.71 299.24 281.71 298.759 281 297z"/>
<path style="fill:#a88384; stroke:none;" d="M392 297L393 298L392 297z"/>
<path style="fill:#f7945b; stroke:none;" d="M191 298L190 312C187.355 312.077 185.734 311.997 184 314L191 313C191.622 308.078 192.977 302.711 191 298z"/>
<path style="fill:#c99a8c; stroke:none;" d="M375 298C373.814 299.186 373.472 299.584 373 301C375.251 300.527 376.118 300.14 375 298z"/>
<path style="fill:#af7673; stroke:none;" d="M391.333 298.667C391.278 298.722 391.222 299.778 391.667 299.333C391.722 299.278 391.778 298.222 391.333 298.667z"/>
<path style="fill:#766365; stroke:none;" d="M122 299L123 300L122 299z"/>
<path style="fill:#5087ab; stroke:none;" d="M241 299L241 305C241.951 302.715 241.951 301.285 241 299z"/>
<path style="fill:#573536; stroke:none;" d="M392 299C393.248 299.685 393.548 299.749 395 300C393.752 299.315 393.452 299.251 392 299z"/>
<path style="fill:#8096af; stroke:none;" d="M225 300L225 303C225.696 301.446 225.696 301.554 225 300z"/>
<path style="fill:#525057; stroke:none;" d="M272.333 300.667C272.278 300.722 272.222 301.778 272.667 301.333C272.722 301.278 272.778 300.222 272.333 300.667z"/>
<path style="fill:#e3a684; stroke:none;" d="M371 302L374 302L373 300C371.365 300.545 371.545 300.365 371 302z"/>
<path style="fill:#6a595c; stroke:none;" d="M120 301L121 302L120 301z"/>
<path style="fill:#7e92a4; stroke:none;" d="M374.667 301.333C374.222 301.778 375.278 301.722 375.333 301.667C375.778 301.222 374.722 301.278 374.667 301.333z"/>
<path style="fill:#a88384; stroke:none;" d="M119 302L120 303L119 302z"/>
<path style="fill:#60829c; stroke:none;" d="M272.333 302.667C272.278 302.722 272.222 303.778 272.667 303.333C272.722 303.278 272.778 302.222 272.333 302.667z"/>
<path style="fill:#f39c6a; stroke:none;" d="M367 305L373 303C370.186 302.088 369.017 302.926 367 305z"/>
<path style="fill:#54abdd; stroke:none;" d="M373 302L374 303L373 302z"/>
<path style="fill:#bb9178; stroke:none;" d="M374 302L375 303L374 302z"/>
<path style="fill:#836c6d; stroke:none;" d="M117 303L118 304L117 303z"/>
<path style="fill:#58a8df; stroke:none;" d="M225 303L225 311C226.161 308.23 226.161 305.77 225 303z"/>
<path style="fill:#5a99cb; stroke:none;" d="M281.333 303.667C281.278 303.722 281.222 304.778 281.667 304.333C281.722 304.278 281.778 303.222 281.333 303.667z"/>
<path style="fill:#50b1e9; stroke:none;" d="M372 303L373 304L372 303z"/>
<path style="fill:#f2a27c; stroke:none;" d="M391 303C391.684 304.58 391.805 304.777 393 306C392.316 304.42 392.195 304.223 391 303z"/>
<path style="fill:#5daedd; stroke:none;" d="M371 304L372 305L371 304z"/>
<path style="fill:#7d92aa; stroke:none;" d="M390 304L390 308C390.71 306.24 390.71 305.759 390 304z"/>
<path style="fill:#8f7475; stroke:none;" d="M114 305L115 306L114 305z"/>
<path style="fill:#94bfe3; stroke:none;" d="M237.667 305.333C237.222 305.778 238.278 305.722 238.333 305.667C238.778 305.222 237.722 305.278 237.667 305.333z"/>
<path style="fill:#c4b7c6; stroke:none;" d="M239 305C240.248 305.685 240.548 305.749 242 306C240.752 305.315 240.452 305.251 239 305z"/>
<path style="fill:#a7a199; stroke:none;" d="M370.667 305.333C370.222 305.778 371.278 305.722 371.333 305.667C371.778 305.222 370.722 305.278 370.667 305.333z"/>
<path style="fill:#cc8f6c; stroke:none;" d="M391 305L391 308C391.696 306.446 391.696 306.554 391 305z"/>
<path style="fill:#a88384; stroke:none;" d="M113 306L114 307L113 306z"/>
<path style="fill:#f3a39f; stroke:none;" d="M231 347C235.705 344.157 237.322 344.289 242 347C241.684 339.64 240.678 332.383 241.595 325C241.949 322.149 244.091 319.917 244.092 317C244.093 313.432 242.463 309.579 242 306C239.014 306.009 235.755 305.751 233.019 307.179C227.456 310.083 227.355 315.553 227.835 321C228.601 329.705 230.312 338.279 231 347z"/>
<path style="fill:#606f83; stroke:none;" d="M271 306L272 307L271 306z"/>
<path style="fill:#f3a39f; stroke:none;" d="M272 306L266 319C268.384 321.553 269.117 323.07 267 326C269.667 337.2 264.937 348.096 266.434 358.999C267.108 363.908 273.718 369.802 276 363L273 362C273.695 359.745 274.658 357.394 274.078 354.998C273.504 352.628 271.205 350.703 271.172 348.209C271.145 346.191 273.373 343.944 274 342L278 344C282.088 333.085 287.896 308.881 272 306z"/>
<path style="fill:#acbbd6; stroke:none;" d="M275 306L276 307L275 306z"/>
<path style="fill:#7088ac; stroke:none;" d="M282 306L282 312C282.951 309.715 282.951 308.285 282 306z"/>
<path style="fill:#69add3; stroke:none;" d="M370 306L371 307L370 306z"/>
<path style="fill:#a88384; stroke:none;" d="M112 307L113 308L112 307z"/>
<path style="fill:#7d6263; stroke:none;" d="M242 307L243 311C243.683 309.494 243.826 308.685 244 307L242 307z"/>
<path style="fill:#afa6ba; stroke:none;" d="M271 307L272 308L271 307z"/>
<path style="fill:#b7bacf; stroke:none;" d="M277 307L278 308L277 307z"/>
<path style="fill:#82a8bd; stroke:none;" d="M369 307C367.645 309.684 366.564 312.047 366 315C368.013 312.559 369.531 310.18 369 307z"/>
<path style="fill:#766365; stroke:none;" d="M111 308L112 309L111 308z"/>
<path style="fill:#f99a76; stroke:none;" d="M122 308C124.613 309.098 127.164 308.993 130 309C127.387 307.902 124.836 308.007 122 308z"/>
<path style="fill:#acbbd6; stroke:none;" d="M230 308L231 309L230 308z"/>
<path style="fill:#c09d85; stroke:none;" d="M368 308L369 309L368 308z"/>
<path style="fill:#51b1e9; stroke:none;" d="M390 308L390 312C390.71 310.241 390.71 309.759 390 308z"/>
<path style="fill:#acbbd6; stroke:none;" d="M229 309L230 310L229 309z"/>
<path style="fill:#f69e8a; stroke:none;" d="M373 309L373 322C374.591 318.209 374.591 312.791 373 309z"/>
<path style="fill:#000000; stroke:none;" d="M155 311L156 312L155 311z"/>
<path style="fill:#b49f8f; stroke:none;" d="M389 311C389.684 312.58 389.805 312.777 391 314C390.316 312.42 390.195 312.223 389 311z"/>
<path style="fill:#000000; stroke:none;" d="M156 312C157.368 316.322 159.878 320.012 162 324C164.554 317.913 162.546 313.052 156 312z"/>
<path style="fill:#c98886; stroke:none;" d="M243 312L243 315C243.696 313.446 243.696 313.554 243 312z"/>
<path style="fill:#926656; stroke:none;" d="M109 313L109 316C109.696 314.446 109.696 314.554 109 313z"/>
<path style="fill:#d3724e; stroke:none;" d="M162 313C163.506 313.683 164.315 313.826 166 314C164.494 313.317 163.685 313.174 162 313z"/>
<path style="fill:#aa5a58; stroke:none;" d="M163 314C163.002 330.279 165.865 346.641 166 363L171 364C169.846 366.249 169.249 366.846 167 368C167.092 372.581 167.003 377.566 168 382C176.522 379.093 176.753 370.966 176.986 363C177.48 346.16 180.888 329.516 184 313C176.945 313.557 170.101 314 163 314z"/>
<path style="fill:#b5b8cc; stroke:none;" d="M227.333 313.667C227.278 313.722 227.222 314.778 227.667 314.333C227.722 314.278 227.778 313.222 227.333 313.667z"/>
<path style="fill:#5daedd; stroke:none;" d="M389 313L389 316C389.696 314.446 389.696 314.554 389 313z"/>
<path style="fill:#000000; stroke:none;" d="M359 314L358 316C359.263 315.029 359.392 315.306 359 314z"/>
<path style="fill:#b49f8f; stroke:none;" d="M365 314L366 315L365 314z"/>
<path style="fill:#38b6ff; stroke:none;" d="M365.333 315.667C365.278 315.722 365.222 316.778 365.667 316.333C365.722 316.278 365.778 315.222 365.333 315.667z"/>
<path style="fill:#ce9a79; stroke:none;" d="M366.333 315.667C366.278 315.722 366.222 316.778 366.667 316.333C366.722 316.278 366.778 315.222 366.333 315.667z"/>
<path style="fill:#ca7543; stroke:none;" d="M109 316L109 322C109.951 319.715 109.951 318.285 109 316z"/>
<path style="fill:#000000; stroke:none;" d="M350 329C353.542 325.299 356.241 320.805 358 316C349.62 316.867 350 321.811 350 329z"/>
<path style="fill:#9ca4a6; stroke:none;" d="M367 316L367 318C368.635 317.455 368.455 317.635 369 316L367 316z"/>
<path style="fill:#9ba3a6; stroke:none;" d="M388 316L388 318L390 318L390 316L388 316z"/>
<path style="fill:#da8056; stroke:none;" d="M326 317C327.506 317.683 328.315 317.826 330 318C328.494 317.317 327.685 317.174 326 317z"/>
<path style="fill:#aa5a58; stroke:none;" d="M330 317C330.407 326.46 333.48 335.64 334.711 345C336.065 355.298 336.052 365.723 337.174 376C337.835 382.061 340.505 386.334 347 385C345.762 378.232 349.005 371.457 341 369C342.758 365.61 346.41 363.475 347.525 359.71C348.532 356.313 347.837 352.495 348.17 349C349.164 338.558 350 328.513 350 318C343.341 318 336.513 318.551 330 317z"/>
<path style="fill:#d47652; stroke:none;" d="M331 317C332.506 317.683 333.315 317.826 335 318C333.494 317.317 332.685 317.174 331 317z"/>
<path style="fill:#d7784c; stroke:none;" d="M347 317C348.769 317.779 350.036 317.912 352 318C350.231 317.221 348.964 317.088 347 317z"/>
<path style="fill:#69add3; stroke:none;" d="M365.667 317.333C365.222 317.778 366.278 317.722 366.333 317.667C366.778 317.222 365.722 317.278 365.667 317.333z"/>
<path style="fill:#38b6ff; stroke:none;" d="M368 317L369 323C370.039 320.471 370.093 318.824 368 317z"/>
<path style="fill:#ce7f7c; stroke:none;" d="M227 318L227 325C228.059 322.466 228.059 320.534 227 318z"/>
<path style="fill:#51b1e9; stroke:none;" d="M388 318L388 322C388.71 320.24 388.71 319.76 388 318z"/>
<path style="fill:#7fa7cc; stroke:none;" d="M244.667 319.333C244.222 319.778 245.278 319.722 245.333 319.667C245.778 319.222 244.722 319.278 244.667 319.333z"/>
<path style="fill:#38b6ff; stroke:none;" d="M266 319L261 323C263.262 324.963 265.03 325.612 268 326C267.917 323.092 267.759 321.308 266 319z"/>
<path style="fill:#acbbd6; stroke:none;" d="M243 320L242 322C243.263 321.029 243.392 321.306 243 320z"/>
<path style="fill:#38b6ff; stroke:none;" d="M242 326C245.45 325.896 247.583 325.541 250 323C245.583 320.705 242.873 320.548 242 326z"/>
<path style="fill:#c4b6c6; stroke:none;" d="M268 320L268 326C268.951 323.715 268.951 322.285 268 320z"/>
<path style="fill:#9ca4a6; stroke:none;" d="M383.667 321.333C383.222 321.778 384.278 321.722 384.333 321.667C384.778 321.222 383.722 321.278 383.667 321.333z"/>
<path style="fill:#a7a29b; stroke:none;" d="M387 321L387 325C388.243 323.097 388.243 322.903 387 321z"/>
<path style="fill:#674f4a; stroke:none;" d="M109.333 322.667C109.278 322.722 109.222 323.778 109.667 323.333C109.722 323.278 109.778 322.222 109.333 322.667z"/>
<path style="fill:#c4b6c6; stroke:none;" d="M241.333 322.667C241.278 322.722 241.222 323.778 241.667 323.333C241.722 323.278 241.778 322.222 241.333 322.667z"/>
<path style="fill:#9497ac; stroke:none;" d="M248 322L249 323L248 322z"/>
<path style="fill:#9ba3b9; stroke:none;" d="M262 322L263 323L262 322z"/>
<path style="fill:#b49f8f; stroke:none;" d="M368 322L368 328C369.594 325.562 369.664 324.383 368 322M382 322L383 323L382 322z"/>
<path style="fill:#69add3; stroke:none;" d="M383 322C384.248 322.685 384.548 322.749 386 323C384.752 322.315 384.452 322.251 383 322z"/>
<path style="fill:#44b3f4; stroke:none;" d="M382 323L383 324L382 323z"/>
<path style="fill:#51b1e9; stroke:none;" d="M386.667 323.333C386.222 323.778 387.278 323.722 387.333 323.667C387.778 323.222 386.722 323.278 386.667 323.333z"/>
<path style="fill:#d07256; stroke:none;" d="M162 324C162.684 325.58 162.805 325.777 164 327L164 324L162 324z"/>
<path style="fill:#94bfe3; stroke:none;" d="M241.333 324.667C241.278 324.722 241.222 325.778 241.667 325.333C241.722 325.278 241.778 324.222 241.333 324.667z"/>
<path style="fill:#c9a995; stroke:none;" d="M248.667 324.333C248.222 324.778 249.278 324.722 249.333 324.667C249.778 324.222 248.722 324.278 248.667 324.333z"/>
<path style="fill:#ea834f; stroke:none;" d="M250 324C253.432 325.44 257.3 325 261 325C257.568 323.56 253.7 324 250 324z"/>
<path style="fill:#7fbee3; stroke:none;" d="M261.667 324.333C261.222 324.778 262.278 324.722 262.333 324.667C262.778 324.222 261.722 324.278 261.667 324.333z"/>
<path style="fill:#82a8bd; stroke:none;" d="M381 324L380 329C381.366 327.369 382.142 325.962 383 324L381 324z"/>
<path style="fill:#ba8262; stroke:none;" d="M110 325L111 326L110 325z"/>
<path style="fill:#ff914d; stroke:none;" d="M242 327C242 332.64 241.704 338.372 242.09 344C242.642 352.063 245.336 360.411 238 366C247.039 369.793 260.448 366.41 270 366C263.606 354.797 268 339.665 268 327C262.476 326.297 257.793 324.643 252.039 325.054C248.583 325.301 245.486 326.774 242 327z"/>
<path style="fill:#97bbcf; stroke:none;" d="M263 325C264.314 326.618 264.877 326.693 267 327C265.623 326.089 264.56 325.596 263 325z"/>
<path style="fill:#78605a; stroke:none;" d="M110 326L111 327L110 326z"/>
<path style="fill:#caac98; stroke:none;" d="M241 326C242.248 326.685 242.548 326.749 244 327C242.752 326.315 242.452 326.251 241 326z"/>
<path style="fill:#97bbcf; stroke:none;" d="M244 326C245.506 326.683 246.315 326.826 248 327C246.494 326.317 245.685 326.174 244 326z"/>
<path style="fill:#e18158; stroke:none;" d="M352 326C351.11 327.745 350.547 329.125 350 331C351.693 329.218 352.375 328.419 352 326z"/>
<path style="fill:#b98161; stroke:none;" d="M111 328L112 329L111 328z"/>
<path style="fill:#d48e8c; stroke:none;" d="M228 328L228 331C228.696 329.446 228.696 329.554 228 328z"/>
<path style="fill:#69add3; stroke:none;" d="M368.333 328.667C368.278 328.722 368.222 329.778 368.667 329.333C368.722 329.278 368.778 328.222 368.333 328.667z"/>
<path style="fill:#573e37; stroke:none;" d="M111.333 329.667C111.278 329.722 111.222 330.778 111.667 330.333C111.722 330.278 111.778 329.222 111.333 329.667z"/>
<path style="fill:#cb7d6a; stroke:none;" d="M164.333 329.667C164.278 329.722 164.222 330.778 164.667 330.333C164.722 330.278 164.778 329.222 164.333 329.667z"/>
<path style="fill:#82a8bd; stroke:none;" d="M379.333 329.667C379.278 329.722 379.222 330.778 379.667 330.333C379.722 330.278 379.778 329.222 379.333 329.667z"/>
<path style="fill:#b49f8f; stroke:none;" d="M368 330L368 333C369.195 331.777 369.316 331.58 370 330L368 330z"/>
<path style="fill:#44b3f4; stroke:none;" d="M373 330C373.031 331.832 372.921 331.559 374 333C373.749 331.548 373.685 331.248 373 330z"/>
<path style="fill:#b27347; stroke:none;" d="M111 331L112 332L111 331z"/>
<path style="fill:#e69b77; stroke:none;" d="M164 331L164 348C165.883 343.513 165.883 335.487 164 331z"/>
<path style="fill:#e98f7d; stroke:none;" d="M241 331L241 342C242.431 338.59 242.431 334.41 241 331z"/>
<path style="fill:#fba778; stroke:none;" d="M281 331C280.356 333.106 280.094 334.795 280 337C281.305 334.819 281.736 333.433 281 331z"/>
<path style="fill:#9ba3a6; stroke:none;" d="M371.333 331.667C371.278 331.722 371.222 332.778 371.667 332.333C371.722 332.278 371.778 331.222 371.333 331.667z"/>
<path style="fill:#a7a29b; stroke:none;" d="M378 331L377 333L379 333C379 331.147 379.3 331.65 378 331z"/>
<path style="fill:#50b1e9; stroke:none;" d="M369.667 332.333C369.222 332.778 370.278 332.722 370.333 332.667C370.778 332.222 369.722 332.278 369.667 332.333z"/>
<path style="fill:#b49f8f; stroke:none;" d="M374 332L375 333L374 332z"/>
<path style="fill:#e69b79; stroke:none;" d="M229 333C228.101 335.124 228.124 335.101 226 336C227.506 336.683 228.315 336.826 230 337C229.826 335.315 229.683 334.506 229 333z"/>
<path style="fill:#51b1e9; stroke:none;" d="M374 333L375 334L374 333z"/>
<path style="fill:#69add3; stroke:none;" d="M375 335C376.58 334.316 376.777 334.195 378 333C376.42 333.684 376.223 333.805 375 335z"/>
<path style="fill:#000000; stroke:none;" d="M153 334C153.021 336.85 153.19 339.271 154 342L156 341C157.867 345.483 159.564 349.695 164 352C162.707 345.504 157.541 338.742 153 334z"/>
<path style="fill:#f3a39f; stroke:none;" d="M350 334C348.708 340.961 349 347.945 349 355C353.575 352.001 354.927 345.468 358 341L350 334z"/>
<path style="fill:#a7a29b; stroke:none;" d="M374 334L375 335L374 334z"/>
<path style="fill:#ff914d; stroke:none;" d="M233 366C236.689 360.003 239.319 351.516 230 351C231.159 346.119 230.388 341.912 230 337C227.569 336.529 224.628 335.281 222.329 336.732C220.193 338.081 218.916 340.846 217.785 343C214.447 349.354 207.823 362.618 215.148 368.471C220.982 373.133 227.013 366.441 233 366M287 335C284.626 337.652 283.433 337.951 280 337C278.387 342.809 279.154 345.758 282 351C274.467 351.247 274.136 356.404 274 363C275.982 362.535 276.406 362.297 278 361C282.798 367.666 298.91 376.882 299.851 362C300.417 353.052 293.72 342.157 289 335L287 335z"/>
<path style="fill:#a7a29b; stroke:none;" d="M375 335L376 336L375 335z"/>
<path style="fill:#e99973; stroke:none;" d="M282 338C283.248 338.685 283.548 338.749 285 339C283.752 338.315 283.452 338.251 282 338z"/>
<path style="fill:#000000; stroke:none;" d="M359 340C353.724 345.242 350.1 353.665 349 361C357.691 360.104 358.569 355.697 359.09 348C359.284 345.127 359.976 342.721 359 340z"/>
<path style="fill:#d9c5ac; stroke:none;" d="M152 342C154.236 343.883 156.162 345.717 158 348C158.47 345.236 157.369 343.447 156 341L152 342z"/>
<path style="fill:#fc9f67; stroke:none;" d="M360 341L359 347C361.093 345.176 361.039 343.529 360 341z"/>
<path style="fill:#d78784; stroke:none;" d="M274.667 342.333C274.222 342.778 275.278 342.722 275.333 342.667C275.778 342.222 274.722 342.278 274.667 342.333z"/>
<path style="fill:#eaf2f1; stroke:none;" d="M152 343C153.324 345.687 154.313 346.676 157 348C156.066 344.873 155.127 343.934 152 343z"/>
<path style="fill:#aa5a58; stroke:none;" d="M230 350C232.294 350.652 235.441 352.459 237.852 352.007C243.544 350.941 238.88 345.056 237 343C233.533 344.653 231.779 346.605 230 350z"/>
<path style="fill:#d38380; stroke:none;" d="M237.333 343.667C237.278 343.722 237.222 344.778 237.667 344.333C237.722 344.278 237.778 343.222 237.333 343.667z"/>
<path style="fill:#aa5a58; stroke:none;" d="M281 350C280.53 348.634 280.261 347.233 279.262 346.108C272.365 338.338 266.81 353.509 275.98 351.762C277.657 351.442 279.397 350.571 281 350z"/>
<path style="fill:#f19b63; stroke:none;" d="M160 344C161.103 345.457 161.543 345.897 163 347C162.101 344.876 162.124 344.899 160 344z"/>
<path style="fill:#bda79e; stroke:none;" d="M150 345L151 346L150 345z"/>
<path style="fill:#38b6ff; stroke:none;" d="M145 348C149.894 354.89 156.394 359.904 165 360C164.559 354.204 158.059 346.872 152.002 345.989C149.636 345.644 147.117 347.145 145 348z"/>
<path style="fill:#e98f7d; stroke:none;" d="M267 345L267 348C267.696 346.446 267.696 346.554 267 345z"/>
<path style="fill:#cd918e; stroke:none;" d="M348 346C348 350.113 347.829 354.04 349 358C350.076 354.503 349.419 349.374 348 346z"/>
<path style="fill:#cba28d; stroke:none;" d="M146 347L147 348L146 347z"/>
<path style="fill:#b3e9fd; stroke:none;" d="M156 348C157.543 349.267 158.048 349.489 160 350C158.666 348.098 158.337 348.034 156 348z"/>
<path style="fill:#9e7171; stroke:none;" d="M163 347L164 352C164.791 349.693 164.475 348.935 163 347z"/>
<path style="fill:#ce7f7c; stroke:none;" d="M241.333 347.667C241.278 347.722 241.222 348.778 241.667 348.333C241.722 348.278 241.778 347.222 241.333 347.667z"/>
<path style="fill:#e68864; stroke:none;" d="M242 347L242 354C243.059 351.466 243.059 349.534 242 347z"/>
<path style="fill:#f2ab7c; stroke:none;" d="M114 349C114.545 350.635 114.365 350.455 116 351L116 349L114 349z"/>
<path style="fill:#f3a39f; stroke:none;" d="M241 349C237.058 354.691 235.65 359.313 234 366C244.195 367.879 244.175 355.606 241 349z"/>
<path style="fill:#e69b79; stroke:none;" d="M281 349L279 350C280.482 350.791 281.796 350.87 281 349z"/>
<path style="fill:#f3a39f; stroke:none;" d="M342 365C342.848 370.081 347.301 370.997 352 369.412C361.192 366.311 368.977 358.776 378 355L378 353C375.91 351.991 373.393 350.094 370.998 350.073C367.287 350.042 363.946 353.972 361 355.819C355.126 359.5 348.326 362.258 342 365z"/>
<path style="fill:#93aab3; stroke:none;" d="M114.333 350.667C114.278 350.722 114.222 351.778 114.667 351.333C114.722 351.278 114.778 350.222 114.333 350.667z"/>
<path style="fill:#d7a687; stroke:none;" d="M146 350L147 351L146 350z"/>
<path style="fill:#87b9d8; stroke:none;" d="M159 350C160.45 351.608 161.051 352.064 163 353C161.55 351.392 160.949 350.936 159 350z"/>
<path style="fill:#e69b79; stroke:none;" d="M230 350C231.248 350.685 231.549 350.749 233 351C231.752 350.315 231.452 350.251 230 350z"/>
<path style="fill:#38b6ff; stroke:none;" d="M106 389C117.883 389.008 129.086 390.905 141 390.09C144.858 389.825 149.522 390.812 152.867 388.397C156.516 385.762 157.532 380.782 159.529 377C161.039 374.139 163.187 371.665 165 369C160.117 368.133 154.226 366.379 150 363.741C141.672 358.542 136.312 352.139 126 351.996C123.162 351.957 118.047 350.361 115.589 352.067C113.822 353.293 113.552 356.113 112.961 358.001C111.368 363.091 108.945 367.884 107.439 373C105.882 378.287 106 383.547 106 389z"/>
<path style="fill:#67bdf0; stroke:none;" d="M119 351C120.248 351.685 120.548 351.749 122 352C120.752 351.315 120.451 351.251 119 351z"/>
<path style="fill:#99b2c4; stroke:none;" d="M122 351C124.332 351.985 126.457 351.981 129 352C126.668 351.015 124.543 351.019 122 351z"/>
<path style="fill:#67bbed; stroke:none;" d="M129 351C130.506 351.683 131.315 351.826 133 352C131.494 351.317 130.685 351.174 129 351z"/>
<path style="fill:#d7a687; stroke:none;" d="M147 351L148 352L147 351M148 352L149 353L148 352z"/>
<path style="fill:#789dbf; stroke:none;" d="M163.333 352.667C163.278 352.722 163.222 353.778 163.667 353.333C163.722 353.278 163.778 352.222 163.333 352.667z"/>
<path style="fill:#838094; stroke:none;" d="M164 352L164 355C164.696 353.446 164.696 353.554 164 352z"/>
<path style="fill:#b1b5b6; stroke:none;" d="M135 353L136 354L135 353z"/>
<path style="fill:#e98f7d; stroke:none;" d="M266 353L266 356C266.696 354.446 266.696 354.554 266 353M274.333 353.667C274.278 353.722 274.222 354.778 274.667 354.333C274.722 354.278 274.778 353.222 274.333 353.667z"/>
<path style="fill:#caac98; stroke:none;" d="M138 355L139 356L138 355z"/>
<path style="fill:#7fbee3; stroke:none;" d="M152 355L153 356L152 355z"/>
<path style="fill:#998c9d; stroke:none;" d="M165 355L165 360C165.83 357.969 165.83 357.031 165 355z"/>
<path style="fill:#99bccf; stroke:none;" d="M139 356L140 357L139 356z"/>
<path style="fill:#b1b5b6; stroke:none;" d="M153 356L154 357L153 356z"/>
<path style="fill:#d7a687; stroke:none;" d="M154 357L155 358L154 357z"/>
<path style="fill:#b16f6c; stroke:none;" d="M348 357C347.489 358.952 347.267 359.457 346 361C349.054 362.151 349.03 359.191 348 357z"/>
<path style="fill:#b1b5b6; stroke:none;" d="M142 358L143 359L142 358z"/>
<path style="fill:#8ac0de; stroke:none;" d="M156 358L157 359L156 358z"/>
<path style="fill:#e4a074; stroke:none;" d="M370.333 358.667C370.278 358.722 370.222 359.778 370.667 359.333C370.722 359.278 370.778 358.222 370.333 358.667z"/>
<path style="fill:#97bbce; stroke:none;" d="M371 358C370.782 359.686 370.776 360.316 371 362C371.71 360.241 371.71 359.759 371 358z"/>
<path style="fill:#caac98; stroke:none;" d="M157 359L158 360L157 359z"/>
<path style="fill:#ff914d; stroke:none;" d="M369 359L361 364L361 366C366.342 368.109 371.111 365.103 369 359z"/>
<path style="fill:#95bde0; stroke:none;" d="M159.667 360.333C159.222 360.778 160.278 360.722 160.333 360.667C160.778 360.222 159.722 360.278 159.667 360.333z"/>
<path style="fill:#c4b7c6; stroke:none;" d="M161 360C162.248 360.685 162.548 360.749 164 361C162.752 360.315 162.452 360.251 161 360z"/>
<path style="fill:#f3a39f; stroke:none;" d="M157 365C159.729 367.787 162.173 367.956 166 368C163.515 370.622 160.634 373.356 159.742 377C158.654 381.447 160.09 387.518 160.729 392C161.915 400.323 162.903 408.594 163.004 417C163.058 421.555 163.614 433.407 170.761 432.534C174.438 432.085 173.638 422.791 173.95 420C175.495 406.194 176 391.908 176 378L168 382C166.892 377.345 167 372.761 167 368C169.626 367.161 170.161 366.626 171 364C168.487 362.963 167.383 362.317 166 360C162.103 360.867 159.856 362.208 157 365z"/>
<path style="fill:#e88e6e; stroke:none;" d="M273.333 360.667C273.278 360.722 273.222 361.778 273.667 361.333C273.722 361.278 273.778 360.222 273.333 360.667z"/>
<path style="fill:#a4b8c2; stroke:none;" d="M146 361L147 362L146 361z"/>
<path style="fill:#38b6ff; stroke:none;" d="M370 361C369.153 363.132 368.316 365.855 365.867 366.676C363.57 367.446 361.338 365.67 359 366.025C354.788 366.664 348.461 370.897 347.255 375.055C344.583 384.27 349.911 385.346 356.91 388.524C359.175 389.552 361.352 391.56 363.995 390.598C366.581 389.657 367.806 387.245 369 385L371 385C371.642 387.448 371.987 390.535 373.738 392.487C380.31 399.81 397.522 394.023 406 394C406.024 385.237 406.646 377.736 405 369L383 369C380.076 369 375.891 369.679 373.318 367.972C371.064 366.477 370.994 363.275 370 361z"/>
<path style="fill:#caac98; stroke:none;" d="M371 362L371 367C371.83 364.97 371.83 364.03 371 362M149 363L150 364L149 363z"/>
<path style="fill:#80acd1; stroke:none;" d="M150 364L151 365L150 364z"/>
<path style="fill:#cd786e; stroke:none;" d="M233 364C233.406 366.092 233.217 366.02 235 367C234.309 365.612 234.015 365.139 233 364z"/>
<path style="fill:#80accf; stroke:none;" d="M152 365L153 366L152 365z"/>
<path style="fill:#cc9d88; stroke:none;" d="M153 365C154.506 365.683 155.315 365.826 157 366C155.494 365.317 154.685 365.174 153 365z"/>
<path style="fill:#96c1e4; stroke:none;" d="M358 365L359 366L358 365z"/>
<path style="fill:#97bbce; stroke:none;" d="M368 365L369 366L368 365z"/>
<path style="fill:#7eaedb; stroke:none;" d="M157 366L158 367L157 366z"/>
<path style="fill:#aa5a58; stroke:none;" d="M230 366L230 372C243.675 374.539 258.272 373.735 272 372L273 367C266.769 365.162 261.26 367.472 255 367.91C246.572 368.501 238.321 367.052 230 366z"/>
<path style="fill:#ce7f7c; stroke:none;" d="M341 366L341 369C341.696 367.446 341.696 367.554 341 366z"/>
<path style="fill:#96c1e4; stroke:none;" d="M356 366L357 367L356 366z"/>
<path style="fill:#d6ab8f; stroke:none;" d="M362 366L363 367L362 366z"/>
<path style="fill:#e1a484; stroke:none;" d="M405.333 366.667C405.278 366.722 405.222 367.778 405.667 367.333C405.722 367.278 405.778 366.222 405.333 366.667z"/>
<path style="fill:#d47652; stroke:none;" d="M241 367C246.222 369.191 253.368 368 259 368C253.778 365.809 246.632 367 241 367z"/>
<path style="fill:#acbbd6; stroke:none;" d="M355 367L356 368L355 367z"/>
<path style="fill:#8cbed9; stroke:none;" d="M363 367L364 368L363 367z"/>
<path style="fill:#97bbce; stroke:none;" d="M371 367L372 368L371 367z"/>
<path style="fill:#b8a9bd; stroke:none;" d="M161 368C162.769 368.779 164.036 368.912 166 369C164.231 368.221 162.964 368.088 161 368z"/>
<path style="fill:#96c1e4; stroke:none;" d="M354 368L355 369L354 368z"/>
<path style="fill:#cbac97; stroke:none;" d="M390 368C393.959 369.661 398.737 369 403 369C399.041 367.339 394.263 368 390 368z"/>
<path style="fill:#a5aaaf; stroke:none;" d="M403 368C404.248 368.685 404.548 368.749 406 369C404.752 368.315 404.452 368.251 403 368z"/>
<path style="fill:#9bc9eb; stroke:none;" d="M405 369L405 372C405.696 370.446 405.696 370.554 405 369z"/>
<path style="fill:#a3828a; stroke:none;" d="M229 370L228 372L230 372C230 370.147 230.3 370.65 229 370z"/>
<path style="fill:#c67573; stroke:none;" d="M345.667 370.333C345.222 370.778 346.278 370.722 346.333 370.667C346.778 370.222 345.722 370.278 345.667 370.333z"/>
<path style="fill:#89b3d8; stroke:none;" d="M347 370L347 372C348.635 371.455 348.455 371.635 349 370L347 370z"/>
<path style="fill:#67c0f6; stroke:none;" d="M349.667 370.333C349.222 370.778 350.278 370.722 350.333 370.667C350.778 370.222 349.722 370.278 349.667 370.333z"/>
<path style="fill:#6785ad; stroke:none;" d="M228 374L233 373C230.7 372.084 229.623 372.121 228 374z"/>
<path style="fill:#6d7b9f; stroke:none;" d="M268 372C269.377 372.911 270.44 373.404 272 374C270.686 372.382 270.123 372.307 268 372z"/>
<path style="fill:#64b6ec; stroke:none;" d="M347.333 372.667C347.278 372.722 347.222 373.778 347.667 373.333C347.722 373.278 347.778 372.222 347.333 372.667z"/>
<path style="fill:#38b6ff; stroke:none;" d="M229 373C223.742 387.808 221.766 403.43 219.718 419C217.209 438.086 215 456.729 215 476C225.343 477.949 235.761 479.659 246 482C247.74 474.69 247.326 467.401 247.594 460C248.12 445.476 248.631 429.145 252 415C253.893 421.403 252.749 428.379 253.039 435C253.711 450.336 254 465.603 254 481C260.893 480.128 267.212 477.816 274 476.576C276.735 476.076 281.167 475.882 282.972 473.436C284.675 471.128 283.762 467.581 283.424 465C282.772 460.011 283.231 454.988 282.576 450C280.13 431.375 279.338 412.603 276.41 394C275.581 388.732 275.587 378.447 271.436 374.604C268.508 371.893 263.5 373.807 260 373.961C249.581 374.417 239.354 373.029 229 373z"/>
<path style="fill:#559ed3; stroke:none;" d="M237 373C238.248 373.685 238.548 373.749 240 374C238.752 373.315 238.452 373.251 237 373z"/>
<path style="fill:#7386a8; stroke:none;" d="M240 373C241.248 373.685 241.548 373.749 243 374C241.752 373.315 241.452 373.251 240 373z"/>
<path style="fill:#986772; stroke:none;" d="M243 373C244.506 373.683 245.315 373.826 247 374C245.494 373.317 244.685 373.174 243 373z"/>
<path style="fill:#8e7081; stroke:none;" d="M252 373C253.769 373.779 255.036 373.912 257 374C255.231 373.221 253.964 373.088 252 373z"/>
<path style="fill:#7088ac; stroke:none;" d="M257 373C258.506 373.683 259.315 373.826 261 374C259.494 373.317 258.685 373.174 257 373z"/>
<path style="fill:#6194c2; stroke:none;" d="M261 373C262.506 373.683 263.315 373.826 265 374C263.494 373.317 262.685 373.174 261 373z"/>
<path style="fill:#95accf; stroke:none;" d="M160 374L161 375L160 374z"/>
<path style="fill:#d69896; stroke:none;" d="M167 374L167 378C167.71 376.241 167.71 375.759 167 374z"/>
<path style="fill:#50afe1; stroke:none;" d="M228 374C227.014 375.479 227 375.203 227 377C228.289 375.557 228.401 375.766 228 374z"/>
<path style="fill:#83aad2; stroke:none;" d="M159 376L160 377L159 376z"/>
<path style="fill:#92a9c8; stroke:none;" d="M346 376L346 379C346.696 377.446 346.696 377.554 346 376z"/>
<path style="fill:#a5bcd5; stroke:none;" d="M158 379L158 385C158.951 382.715 158.951 381.285 158 379z"/>
<path style="fill:#c6b6be; stroke:none;" d="M159 380L159 386C159.951 383.715 159.951 382.285 159 380z"/>
<path style="fill:#8abae1; stroke:none;" d="M157 381L156 385C157.656 383.596 157.751 383.046 157 381z"/>
<path style="fill:#8cadd1; stroke:none;" d="M346 382L347 383L346 382z"/>
<path style="fill:#dd908e; stroke:none;" d="M340 387L343 386C341.222 385.045 340.979 385.234 340 387z"/>
<path style="fill:#f3a39f; stroke:none;" d="M356 388C351.09 386.661 345.241 383.807 340.419 387.164C336.807 389.679 337.02 395.114 337.001 399C336.954 408.645 337.32 418.439 338.576 428C339.134 432.254 339.493 436.713 339.68 440.999C339.756 442.738 339.325 444.97 340.693 446.353C343.058 448.743 346.558 446.11 347.822 443.891C350.274 439.586 349.97 432.802 350.001 428C350.037 422.304 350.924 416.632 351.729 411C352.822 403.353 355.779 395.659 356 388z"/>
<path style="fill:#95accf; stroke:none;" d="M348 385L349 386L348 385z"/>
<path style="fill:#4bbfff; stroke:none;" d="M406 385L406 394C407.256 391.006 407.256 387.994 406 385z"/>
<path style="fill:#7daedb; stroke:none;" d="M353.667 387.333C353.222 387.778 354.278 387.722 354.333 387.667C354.778 387.222 353.722 387.278 353.667 387.333z"/>
<path style="fill:#da979b; stroke:none;" d="M356 388L356 392C357.073 390.118 357.084 389.862 356 388z"/>
<path style="fill:#78abda; stroke:none;" d="M357 388L358 389L357 388z"/>
<path style="fill:#49b3f3; stroke:none;" d="M107 389C110.721 391.229 114.759 390.997 119 391C115.279 388.771 111.241 389.003 107 389z"/>
<path style="fill:#71b0e1; stroke:none;" d="M357 391C359.092 390.594 359.02 390.783 360 389C358.42 389.684 358.223 389.805 357 391z"/>
<path style="fill:#6dade0; stroke:none;" d="M119 390C121.052 390.874 122.747 390.953 125 391C122.948 390.126 121.253 390.047 119 390z"/>
<path style="fill:#50bbfc; stroke:none;" d="M137 390C140.686 392.684 145.589 391.036 150 391C146.041 389.339 141.263 390 137 390z"/>
<path style="fill:#aab6cf; stroke:none;" d="M120 391L120 393C121.635 392.455 121.455 392.635 122 391L120 391z"/>
<path style="fill:#f3a39f; stroke:none;" d="M122 391C119.605 403.899 121.628 418.068 123.155 431C123.594 434.719 122.391 444.819 128.907 442.238C133.389 440.463 133.442 434.067 133.83 430C134.976 418.01 135.564 405.97 137 394C134.876 393.101 134.899 393.124 134 391L122 391z"/>
<path style="fill:#de8f93; stroke:none;" d="M134 391C134.406 393.092 134.217 393.02 136 394C135.309 392.612 135.015 392.139 134 391z"/>
<path style="fill:#c29099; stroke:none;" d="M135 391C135.684 392.58 135.805 392.777 137 394L137 391L135 391z"/>
<path style="fill:#e3b6bc; stroke:none;" d="M137 391L136 398C137.986 395.539 138.582 393.797 137 391z"/>
<path style="fill:#d0b0b9; stroke:none;" d="M121 392C120.014 393.479 120 393.203 120 395C121.289 393.557 121.401 393.766 121 392z"/>
<path style="fill:#5cc0f5; stroke:none;" d="M375 394C377.057 395.582 378.388 395.826 381 396C379.031 394.937 377.202 394.468 375 394z"/>
<path style="fill:#51b6f7; stroke:none;" d="M397 394C399.841 395.835 402.668 395.132 406 395C403.11 393.787 400.126 394.002 397 394z"/>
<path style="fill:#66b1e7; stroke:none;" d="M387 395C388.248 395.685 388.548 395.749 390 396C388.752 395.315 388.451 395.251 387 395z"/>
<path style="fill:#95accf; stroke:none;" d="M390.667 395.333C390.222 395.778 391.278 395.722 391.333 395.667C391.778 395.222 390.722 395.278 390.667 395.333z"/>
<path style="fill:#c4a8b7; stroke:none;" d="M392.667 395.333C392.222 395.778 393.278 395.722 393.333 395.667C393.778 395.222 392.722 395.278 392.667 395.333z"/>
<path style="fill:#f3a39f; stroke:none;" d="M382 396C382.002 409.915 384.196 424.094 385.044 438C385.283 441.927 387.142 447.469 391.927 447.623C396.62 447.775 395.629 438.202 395.925 435C397.103 422.277 399.995 407.581 397 395C391.948 395.639 387.101 396 382 396z"/>
<path style="fill:#c6b5c0; stroke:none;" d="M397 395L398 399C398.553 396.992 398.303 396.668 397 395z"/>
<path style="fill:#84c9ed; stroke:none;" d="M379.667 396.333C379.222 396.778 380.278 396.722 380.333 396.667C380.778 396.222 379.722 396.278 379.667 396.333z"/>
<path style="fill:#cab5be; stroke:none;" d="M381 396C380.79 397.847 380.806 399.143 381 401C381.83 398.969 381.83 398.031 381 396z"/>
<path style="fill:#4cbafa; stroke:none;" d="M252 415C250.289 420.777 250.409 427.023 249.83 433C248.864 442.989 247.79 452.995 247 463C250.828 457.396 249.999 446.688 250 440C252.72 445.651 252 451.851 252 458C255.513 449.629 253.014 438.813 253 430C252.992 425.187 253.877 419.473 252 415z"/>
<path style="fill:#000000; stroke:none;" d="M251 430L251 433C251.696 431.446 251.696 431.554 251 430z"/>
<path style="fill:#57c3fd; stroke:none;" d="M253 446L253 462C254.812 457.681 254.812 450.319 253 446z"/>
<path style="fill:#3bacec; stroke:none;" d="M253 462L253 477C254.74 472.852 254.74 466.148 253 462z"/>
<path style="fill:#44bbf6; stroke:none;" d="M214 466C214 468.937 213.094 473.937 215.028 476.397C217.33 479.326 224.623 478.93 228 479C224.1 476.926 219.358 476.554 215 476C215 472.586 215.327 469.163 214 466z"/>
<path style="fill:#56bffc; stroke:none;" d="M283 474L277 476C279.194 477.016 284.52 477.751 283 474z"/>
<path style="fill:#5e86b3; stroke:none;" d="M274 476C275.248 476.685 275.548 476.749 277 477C275.752 476.315 275.452 476.251 274 476z"/>
<path style="fill:#5e92c1; stroke:none;" d="M268.667 477.333C268.222 477.778 269.278 477.722 269.333 477.667C269.778 477.222 268.722 477.278 268.667 477.333z"/>
<path style="fill:#78677e; stroke:none;" d="M270.667 477.333C270.222 477.778 271.278 477.722 271.333 477.667C271.778 477.222 270.722 477.278 270.667 477.333z"/>
<path style="fill:#aa5a58; stroke:none;" d="M268 478L268 486C272.231 486.785 275.832 487.229 280 486C278.312 482.935 277.252 480.504 277 477L268 478z"/>
<path style="fill:#758096; stroke:none;" d="M277 477L277 480C277.696 478.446 277.696 478.554 277 477z"/>
<path style="fill:#62a5d0; stroke:none;" d="M265.667 478.333C265.222 478.778 266.278 478.722 266.333 478.667C266.778 478.222 265.722 478.278 265.667 478.333z"/>
<path style="fill:#9d7278; stroke:none;" d="M267 478L267 485C268.059 482.466 268.059 480.534 267 478z"/>
<path style="fill:#78a3c1; stroke:none;" d="M226.667 479.333C226.222 479.778 227.278 479.722 227.333 479.667C227.778 479.222 226.722 479.278 226.667 479.333z"/>
<path style="fill:#8d595f; stroke:none;" d="M228 482L231 480C228.86 478.882 228.473 479.749 228 482z"/>
<path style="fill:#5e92c1; stroke:none;" d="M231.667 479.333C231.222 479.778 232.278 479.722 232.333 479.667C232.778 479.222 231.722 479.278 231.667 479.333z"/>
<path style="fill:#7c8d9f; stroke:none;" d="M266 479L266 482C266.696 480.446 266.696 480.554 266 479z"/>
<path style="fill:#98858f; stroke:none;" d="M227.333 480.667C227.278 480.722 227.222 481.778 227.667 481.333C227.722 481.278 227.778 480.222 227.333 480.667z"/>
<path style="fill:#9f4e4e; stroke:none;" d="M229 480L229 482L236 483C235.204 479.284 232.363 480 229 480z"/>
<path style="fill:#9c6a70; stroke:none;" d="M236 480L236 484C236.71 482.241 236.71 481.759 236 480z"/>
<path style="fill:#62b6eb; stroke:none;" d="M237 480C237 481.797 237.014 481.521 238 483L244 482C241.689 480.607 239.691 480.235 237 480z"/>
<path style="fill:#aa5a58; stroke:none;" d="M223 486C227.463 487.319 231.471 486.841 236 486C233.692 479.436 226.931 482.768 223 486z"/>
<path style="fill:#a38086; stroke:none;" d="M237 482L236 486C237.303 484.332 237.553 484.008 237 482z"/>
<path style="fill:#ae7a7b; stroke:none;" d="M224 485C225.58 484.316 225.777 484.195 227 483C225.42 483.684 225.223 483.805 224 485z"/>
<path style="fill:#af7977; stroke:none;" d="M233.667 486.333C233.222 486.778 234.278 486.722 234.333 486.667C234.778 486.222 233.722 486.278 233.667 486.333z"/>
<path style="fill:#b97270; stroke:none;" d="M225 487C227.052 487.874 228.747 487.953 231 488C228.948 487.126 227.253 487.047 225 487z"/>
</svg>
